<mxfile host="app.diagrams.net" modified="2021-06-03T13:51:58.943Z" agent="5.0 (Windows NT 10.0; Win64; x64) AppleWebKit/537.36 (KHTML, like Gecko) Chrome/91.0.4472.77 Safari/537.36" etag="yyUr_-cRVHND1PeXXmiC" version="14.7.3" type="github">
  <diagram id="kS7YShBmf-Vi9kX7x40W" name="Page-1">
    <mxGraphModel dx="1736" dy="900" grid="1" gridSize="10" guides="1" tooltips="1" connect="1" arrows="1" fold="1" page="1" pageScale="1" pageWidth="827" pageHeight="1169" math="0" shadow="0">
      <root>
        <mxCell id="0" />
        <mxCell id="1" parent="0" />
        <mxCell id="oquPnyjEzPXF4-H-xuAM-6" value="" style="strokeWidth=1;shadow=0;dashed=0;align=center;html=1;shape=mxgraph.mockup.containers.browserWindow;rSize=0;strokeColor=#666666;strokeColor2=#008cff;strokeColor3=#c4c4c4;mainText=,;recursiveResize=0;portConstraintRotation=0;noLabel=0;snapToPoint=0;fixDash=1;fillColor=#DFC48F;" parent="1" vertex="1">
          <mxGeometry y="1" width="827" height="1899" as="geometry" />
        </mxCell>
        <mxCell id="oquPnyjEzPXF4-H-xuAM-7" value="Page 1" style="strokeWidth=1;shadow=0;dashed=0;align=center;html=1;shape=mxgraph.mockup.containers.anchor;fontSize=17;fontColor=#666666;align=left;" parent="oquPnyjEzPXF4-H-xuAM-6" vertex="1">
          <mxGeometry x="60" y="12" width="110" height="26" as="geometry" />
        </mxCell>
        <mxCell id="oquPnyjEzPXF4-H-xuAM-8" value="https://www.draw.io" style="strokeWidth=1;shadow=0;dashed=0;align=center;html=1;shape=mxgraph.mockup.containers.anchor;rSize=0;fontSize=17;fontColor=#666666;align=left;" parent="oquPnyjEzPXF4-H-xuAM-6" vertex="1">
          <mxGeometry x="130" y="60" width="250" height="26" as="geometry" />
        </mxCell>
        <mxCell id="oquPnyjEzPXF4-H-xuAM-2" value="" style="shape=image;imageAspect=0;aspect=fixed;verticalLabelPosition=bottom;verticalAlign=top;image=data:image/jpeg,/9j/4AAQSkZJRgABAQAAAQABAAD//gA7Q1JFQVRPUjogZ2QtanBlZyB2MS4wICh1c2luZyBJSkcgSlBFRyB2NjIpLCBxdWFsaXR5ID0gNzUK/9sAQwAIBgYHBgUIBwcHCQkICgwUDQwLCwwZEhMPFB0aHx4dGhwcICQuJyAiLCMcHCg3KSwwMTQ0NB8nOT04MjwuMzQy/9sAQwEJCQkMCwwYDQ0YMiEcITIyMjIyMjIyMjIyMjIyMjIyMjIyMjIyMjIyMjIyMjIyMjIyMjIyMjIyMjIyMjIyMjIy/8AAEQgEAAQAAwEiAAIRAQMRAf/EAB8AAAEFAQEBAQEBAAAAAAAAAAABAgMEBQYHCAkKC//EALUQAAIBAwMCBAMFBQQEAAABfQECAwAEEQUSITFBBhNRYQcicRQygZGhCCNCscEVUtHwJDNicoIJChYXGBkaJSYnKCkqNDU2Nzg5OkNERUZHSElKU1RVVldYWVpjZGVmZ2hpanN0dXZ3eHl6g4SFhoeIiYqSk5SVlpeYmZqio6Slpqeoqaqys7S1tre4ubrCw8TFxsfIycrS09TV1tfY2drh4uPk5ebn6Onq8fLz9PX29/j5+v/EAB8BAAMBAQEBAQEBAQEAAAAAAAABAgMEBQYHCAkKC//EALURAAIBAgQEAwQHBQQEAAECdwABAgMRBAUhMQYSQVEHYXETIjKBCBRCkaGxwQkjM1LwFWJy0QoWJDThJfEXGBkaJicoKSo1Njc4OTpDREVGR0hJSlNUVVZXWFlaY2RlZmdoaWpzdHV2d3h5eoKDhIWGh4iJipKTlJWWl5iZmqKjpKWmp6ipqrKztLW2t7i5usLDxMXGx8jJytLT1NXW19jZ2uLj5OXm5+jp6vLz9PX29/j5+v/aAAwDAQACEQMRAD8A9/ooooAKKKKAGlecrwf50K2eDwfSnUjKGH8jQAtFFHSgBhLFiAcEdB60By33R065oYlhlVPHQ0h+deV5ByVoAGbDKWGMH8KX5gu3bn37UYOPl+ZT2NIqAn+IL6E0AKoy3qAMU8AAcDFAAAwOBRQAUUUUAFFFFABRRRQAUUUUAFFFFABRRRQAUUUUAFFFFABRRRQAUUUUAFBGRg0UUAM5Tpyv8qcCCMg8UtNKkHK9e49aAHUUisG9iOopaACkJCjJpTwKaASdzfgPSgBACxy34Cn0UUAFFFFABRRRQAUUUUAFFFFABRRRQAUUUUAFFFFABRRRQAUUUUAFFFFABRRRQAUhUMOaWigBmSn3uR60+ikChc4/KgBaY2S+M44496fTCS44Xj1JxQABieMAEdc0jMRgsOhzkUcsuCPmHb1pQOMp/wB8mgAGRnaAQeQc0KPmAH8I60gTLfdKjuM1IAAMDgUAGMUUUUAFFFFABRRRQAUUUUAFFFFABRRRQAUUUUAFFFFABRRRQAUUUUAFFFFAAQCMHpTOU9Sv6in0UAAIIyKKaVIOV/EetKrBh/SgBaKKKAEJAGSeKaAWOW6dhSgFjub8B6U6gAooooAKKKKACiiigAooooAKKKKACiiigAooooAKKKKACiiigAooooAKKKKACiiigAooooAKCQOtFMcfxcHA6GgBSxB4GQOtNLbiqkEZPekG5Spx2x1oODls8Hv6GgB2AxbJPB9cYpuWIQj738xSghxkqCw/WlTn5ief5UAKgOScYB7U6iigAooooAKKKKACiiigAooooAKKKKACiiigAooooAKKKKACiiigAooooAKKKKACiiigAooooAbuJ6Dj1NG49eCPY03/AJZikXlvX8c0ASA5FLTV6t9f6U6gAooooAKKKKACiiigAooooAKKKKACiiigAooooAKKKKACiiigAooooAKKKKACiiigAooooAQkAZJwKQsc/KM8ZocdDkcetRjcArYGKAHM2QAQQCe9LgFiG7dKQ8ndj2YelCndwwBI6ZHWgBOSq4PO7g09QdxYjHtSJ8x3E8jjHpT6ACiiigAooooAKKKKACiiigAooooAKKKKACiiigAooooAKKKKACiiigAooooAKKKKACiiigApu4noPxp1M/5ZigBdx9j9DSqdwqNeSO/rzmnr95qAHUUUUAFFFFABRRRQAUUUUAFFFFABRRRQAUUUUAFFFFABRRRQAUUUUAFFFFABRRRQAUUUUAFFFIx2qT6UAKSB1qM/NuO0MQcAUY5xgM3Uk01hgblGCOCAaAFGVG1x8p/SlAYMQDz796QAFdoy2TyT2qQKF6UAN2c7s/N605V255yScmlppBU5HI7igB1FIGDDIpaACiiigAooooAKKKKACiiigAooooAKKKKACiiigAooooAKKKKACiiigAooooAKKKQkAZNACkgDJ6U1STyeB2FIAWOW6dhT6AG7R6kfjRt9z+dOooAQAClpGUMOaaGK8N+BoAfRRRQAUUUUAFFFFABRRRQAUUUUAFFFFABRRRQAUUUUAFFFFABRRRQAUUUUAFFFFABSEgdTilJwM1GMnHALEZye1AAfmZiAGI6CkG5Mlh8p6+1DAcnGGXrjuKRR8pA3EsMHPagBwXD4B7cGl2Z5Jyex9KVUC9BTqAEVcZyck96Wm7sH5hgdjTqACiiigAooooAKKKKACiiigAooooAKKKKACiiigAooooAKKKKACiiigAooooAKKKKACgkAZNBIAyelMALnLdOwoAVSSc9B2FG0epH406igBu33P50oAFLSMoYfyNAC0U0MVOG/A06gAooooAKKKKACiiigAooooAKKKKACiiigAooooAKKKKACiiigAooooAKKKKACimhiCA2OehFIW64OAOpoAVicgDqe/pTDtI534P8AFmjpIQSSCMZNKQ23acAdzmgAYgN97acc570AZwBkjOSfWnLyS3r0p1ABRRRQAUUUUANK85Xg/wA6A2Tg8H0p1Iyhhz+dAC0UwMV4b8DT6ACiiigAooooAKKKKACiiigAooooAKKKKACiiigAooooAKKKKACiikJCjJoACQoyaQAsdzfgPSgKSdzdew9KdQAUUUUAFFFFABR160UUAMwU6cr6elOBBGQeKWmlSDleD3HrQA6ikVg3se4paACiiigAooooAKKKKACiiigAooooAKKKKACiiigAooooAKKD0pgY8E42n07UAPprEjAHU0MxyQDgDqaZnDq2SRjqaADC8nDEd2zSnaCBkggcH2pcMF28Y9c0LycjoBgUAIBu4GTnqTUlFFABRRRQAdaZgp93kelPooAQMGGRS00rk5BwfWgNzhuD/OgB1FFFABRRRQAUUUUAFFFFABRRRQAUUUUAFFFFABRRRQAUUUUAFFFFABSEhRk0EhRk0gBJ3N+A9KAEALHcw+gp9FFABRRRQAUUUUABAIwaZynqV/lT6KAAEEZHSimlSDlfxHrSqwb69xQAtFFFABRRRQAUUUUAFFFFABRRRQAUUUUAFFFFABRRRQAUUUUAFFN398fL60pbHA5JoAYBwQ3CnoCaGjPl7epyfxo+UFt+Mk9/SjBIQHOev4UADLyxb7v86T+EB+vUGnhBnJyT7mnUAIM4GetLRRQAUUUUAFFFFABRRRQAEZGDTMFOnK+npT6KAEBBGQeKWmlSDuXg9x60qsG9j3FAC0UUUAFFFFABRRRQAUUUUAFFFFABRRRQAUUUUAFFFIzBR79hQAMwUc0gXnc3X+VCqc7m6/yp1ABRRRQAUUUUAFFFFABRRRQAUUUUAIyhvY9jSBiDhuvY+tOpCARgjigBaKZynXlfX0p4ORkUAFFFFABRRRQAUUUUAFFFFABRRRQAUUUUAFFFFAATgZPSox1JOAp7GnP9z8s0hIDkt36UAJswhAPfIpCpyM4ChRmjGVA5GW4HtT9gz3P1NADBwmGB2np7VIudoz1paKACiiigAooooAKKKKACkIBGCKWigBmSnXlfXuKeDkZFFNKkHKfiPWgB1FIrBvY9xS0AFFFFABRRRQAUUUUAFFFFABRRRQAUUUUAFFFFABSMwUZNDMFH8hSKpzubr/KgACknc3XsPSnUUUAFFFFABRRRQAUUUUAFFFFABSMueeh7GlooAaGOdrcH+dOpCARgim5KdeV9fSgB9FHWigAooooAKKKKACiiigAooooAKKKKACiiigAoopHJCMR1xQA0feIAyp60m1gGAPbANLgbguflxwPWkzhXwTx0oAdhhwGGPcUoXHJOT60tFABRRRQAUUUUAFFFFABRRRQAUUUUAFFFFABSMob2PY0tFADQxBw3XsfWnUhAIwRxTeU68r6+lAD6KAcjIooAKKKKACiiigAooooAKKKKACiims2OByT0FACs233J6CkVcHJ5ahVxyeWPenUAFFFFABRRRQAUUUUAFFFFABRRRQAUUUUAFFFFABTNpXlfxFPooARWDdPypaay5ORwfWgNzhuD/OgB1FFFABRRRQAUUUUAFFFFABRRRQAUUdKZ/rP93+dADgQw9qTaw+63HoRmnUUANC4OScmnUUUAFFFFABRRRQAUUUUAFFFFABRRRQAUUUUAIyhvr2NJuK8N+dOo69aACimYKdOV9KcCGGRQAtFFFABRRRQAUUUUAFFFFABRRRQAUjNtHqewoZscdSegpFXByTlqABV53N97+VOoooAKKKKACiiigAooooAKKKKACiiigAooooAKKKKAGbSvK9PSnKwYZFLTWXJyDg0AOopobJwRhqdQAUUUUAFFFFABRRRQAUUUUAFFFFABRTCS5wvTuaeAAMDpQAzaQMYDD0NAUnGcADoBT6KACiiigAooooAKKKKACiiigAooooAKKKKACiiigAooooAKKKKAGFSvK/iKcrBhx+VLTWXJyOD60AOopobnDcH+dOoAKKKKACiiigAooprNzgct/KgAZscDlj2oVccnknqaVV2+5PU0tABRRRQAUUUUAFFFFABRRRQAUUUUAFFFFABRRRQAUUUUAFFFFABSEBhg0tFADMlOG5HrT6KZgp93kelAD6KQEMMiloAKKKKACiiigAoJwMmgkAZPSmAFzk9OwoAAC5yfu9h60+iigAooooAKKKKACiiigAooooAKKKKACiiigAooooAKKKKACiiigAppXnI4NOooAaG5wwwf506kIDDBpuSnXlfX0oAfRQDkZFFABRRRQAUUUUAFNZscDknoKGbBwOW9KVVxz1J6mgBFXHJ5J6mnUUUAFFFFABRRRQAUUUUAFFFFABRRRQAUUUUAFFFFABRRRQAUUUUAIVDDBpu4rw3T1p9FABRTMFOnK+npTgQRkGgBaKKKACiiigAooooAKZkucD7vc+tH+s/3f508DAwKAAAAYFFFFABRRRQAUUUUAFFFFABRRRQAUUUUAFFFFABRRRQAUUUUAFFFFABRRRQAUUUUAIVDDBpuSnDcj1p9FABRSKu3oePSloAKKKaWOdq9fX0oAGY52r1/lSqoUe/c0KoUcUtABRRRQAUUUUAFFFFABRRRQAUUUUAFFFFABRRRQAUUUUAFFFFABRRRQAUUUUAFFFFADSvOV4P86FbPB4PpTqRlDdfzoAWikyFHJ/E0oIPQ5oAKQkAZNBIUZNIASdzfgPSgBACxy3TsKfRRQAUUUUAFFFFABRRRQAUUUUAFFFFABRRRQAUUUUAFFFFABRRRQAUUUUAFFFFABRRRQA0qVOV/KlVg3se4paTAyDjkUALRRRQAU1m52ry38qGY52r1/lSqoUfzNAAq7R6nuaWiigAooooAKKKKACiiigAooooAKKKKACiiigAooooAKKKKACiiigAooooAKKKKACmlecrwf506igBqtnjofSnUjKG+vY0ZwOT+NAC0UgIPQg0pOBk0AFM/1n+7/Oj/AFn+7/On0AFFFFABRRRQAUUUUAFFFFABRRRQAUUUUAFFFFABRRRQAUUUUAFFFFABRRRQAUUUUAFFFFABRRSEgde9AEczMCoBxmmeXxuz+OakljL4welJ5b46igAiYliCTwO9S1HHGUJJIOakoAKKKKACiiigAooooAKKKKACiiigAooooAKKKKACiiigAooooAKKKKACiiigAooooAKKKKACkfhTS00kOpxQAjYU8AUg+Y9BmlbLfwmhcqPumgBy8opPpS0ijCgegpaACiiigAooooAKKKKACiiigAooooAKKKKACiiigAooooAKKKKACiiigAooooAKKKKACiiigAqKZioGDipCQvWmSxlwMHpQBHsyCxPTqc0+JiXKkk4HOaPLfHUUscZRiSc5oAkxRRRQAUUUUAFFFFABRRRQAUUUUAFFFFABRRRQAUUUUAFFFFABRRRQAUUUUAFFFFABRRRQAUUUUAIxwpPtTDhQCBz608kNlRTTkgDaeKAE+9wQM05eV59TSKCv8J/SnKMCgBaKKKACiiigAooooAKKKKACiiigAooooAKKKKACiiigAooooAKKKKACiiigAooooAKKKKACiikZse5PQUADNtHqewpFXnc3LfyoVcHJOWp1ABRRRQAhzjgZNCsGH8xS01lzyOD60AOopobnDcH+dOoAKKKKACiiigAooooAKKKKACiiigAooooAKKKKACiiigAooooAKKKKACiiigAoopn+s/3f50AH+s/3f50+iigAooooAaWKnkfL606imYKcryPSgB9FIGDDIpaACiiigAooooAKKKKACiiigAooooAKKKKACiiigAooooAKKKKACiiigAooooAKRmCj37ChmC+5PQUirzk8t/KgAVTnc3X+VOoooAKQ5xx1paKAEVg317ilpGXPPQ+tIG52twf50AOooooAKKKKACiiigAooooAKKKKACiiigAooooAKKKKACiiigAooooAKKKKACiiigAppJY7V/E+lISWOFOB3NOAAGBQAABRgUtFFABTS20/N09adRQAUUzBT7vI9KcCGGRQAtFFFABRRRQAUUUUAFFFFABRRRQAUUUUAFFFFABRRRQAUUUUAFFFFABRRRQAUUU1mxwOW9KABmxwOSegoVccnknqaFXHPUnqadQAUUUUAFFFFABRRRQAhAYYNNyU+9yPWn0UAFFMwU5XkelODBhkUALRRRQAUUUUAFFFFABRRRQAUUUUAFFFFABRRRQAUUUUAFFFFABQTgZNBIAyaZgucn7vYetABy/XhfT1p9FFABRRRQAUUUUAFFFFADSvOVOD/OhWycHhvSnUjKGHNAC0UwMV4b8DT6ACiiigAooooAKKKKACiiigAooooAKKKKACiiigAooooAKKKKACms2OByT0FDNjgcse1Crjk8k9TQAKuOTyx706iigAooooAKKKKACkIBGCKWigBmSnXlfX0p/WimbSvK9PSgB9FIrBhkUtABRRRQAUUUUAFFFFABRRRQAUUUUAFFFFABRRRQAUUUUAFFFFABTCS5wOnc0Z38D7vc+tPAwMCgAAAGB0ooooAKKKKACiiigAppXncvB/nTqKAGq2eDwfSnUjKGH8jSBipw34GgB1FFFABRRRQAUUgIYZFLQAUUUUAFFFFABRRRQAUUUUAFFFFABRRRQAUUU1mOdq9f5UADNzheW/lSqu0ep7mhVCj+ZpaACiiigAooooAKKKKACiiigAooooAKaV5yvB/nTqKAGq2Tg8H0p1Iyhhz+dNDFeG/A0APooooAKKKKACiiigAooooAKKKKACiiigAooprE5CjgnvQA6kJAGT0piuATydvvTyAcHr6UANALnLdOwp9FFABRRRQAUUUUAFFFFABRRRQAUUUUAHXrTMFOnK+npT6KAEBBGQeKWmlSDleD3HrSqwb2PcUALRRRQAUUUUAFFFFABRRRQAUUUUAFFFFABRRRQAU1mwcDlqGbnavX+VKqhR79zQAKu33J6mloooAKKKKACiiigAooooAKKKKACiiigBpXJyDg0BsnBGGp1Iyhhg0ALRTNxXhunrT6ACiiigAooooAKKKKACiiigAooooAKKKKACimsSMAdScU0OA+N+fXNAElM+/wD7v86cQGHtS0AFFFFABRRRQAUUUUAFFFFABRRRQAUEAjBoooAZynqV/lTwQRkdKKaVIOV/EetADqKRWDfXuKWgBpXnK8H+dCtk4PB9KdSMoYc0ALRTdxXhvwNOoAKKKKACiiigAooooAKKKKACiimkknav4n0oACxJ2r17n0pVUKMCgAKMCloAKKKKACiiigAooooAKKKKACiiigAooooAKKKKACgjIwaKKAGYKdOV9PSnAgjIPFLTSpB3Lwe49aAHUUisG9j3FLQAUUUUAFFFFABRRRQAUgIPQg0p5FRhVKZxyB0oAVm684A6mm4yflLBhyN1A6YzznIPrTiSCGYYA/WgBFZickrtHWnJ9z+VIqAAEqN30p9ABRRRQAUUUUAFFFFABRRRQAUUUUAFFFFABRRRQAUjKG9j2NLRQA0MQcNwex9adXPeJPGeheFoM6reoshGUt0+aV/oo/mcCvHvEHxw1e7Lw6HbJYQdBNKBJL+X3R+tS5JFKLZ75cXMFpCZriaOGIdXkYKB+JrkdT+Kvg7TCytqyXMi/wAFojS/qOP1r5q1LV9R1mbztTv7i8k7GaQtj6DoPwqlWbqdjRUu57ze/HvSY2IstGvpx2MrpF/8VWNP8fb9j/o+g2yD/ppcs38lFeP0VPOylTier/8AC+tdz/yCNNx/vSf41LF8fNVB/faHZuP9id1/oa8joo55D5Inudp8fbJmAvdBuYh3MMyv+hC11GmfF7wdqJCvqD2bnot3EUH/AH1yv618yUU/aMTpo+zrS+tL+AT2d1DcQnpJC4dT+IqxXxnp+pX2k3AuNOvJ7SYfxwSFD+OOv416f4Z+OGpWTJB4gthfQdPtEICSr9V+636VaqLqZum+h77TWY52r1/lWToniPS/EtkLrSLyO4j6Pjhoz6Mp5B+ta4UKMCrRmCqFH9aWiimAUUUUAFFFFABRRRQAUUUUAFFFFABRRRQAUUUUAFMwU6cr6elPooAQEEZBpaaV53Lwf50K2eOh9KAHUUUUAFFFFABRRRQAUUUUAGQe9NY84Bxjkn0pqqCuTnIyDjvSDkEE8tyM0AH3sYZs9RuFKrMx6DHelJJIJG0DkkmhUDDcR1OaAFTocdM8U6iigAooooAKKKKACiiigAooooAKKKKACiiigAooooARlzz0PY0gY52twf506kIBGCKAFooooACMjBpnKdOV9PSn0UAICCMg8UtNKkHK8HuPWlVg3se4oAWiiigAooooAKKKYSWOF6dzQAEljtX8T6U4AAYFAAAwBxS0AFFFFABRRRQAUUUUAFFFFABRRRQAUUUUAFFFFABRRRQAUUUUAFFFFACMob2PY0gYg4br2PrTqQgEYI4oAWimZKdeV9fSng5GRQAUUU187ePxxQA6io8kDC8g9D6UuScgMG9RQAn3sEgnPQD0puACWUbSOoNKp6c4YDGD3pTzkZBZuuOwoARgpzw2f7vvT1QAA4GfWnUUAFFFFABRRRQAUUUUAFFFFABRRRQAUUUUAFFFFABRRVLVdUs9F02fUL+4SC2hXc7t/nk+1AE9zcQ2ltJcXEqRQxqWeR22qoHcmvE/G3xolmaSw8Lfu4/uvfuvLf8AXNT0/wB4/l3rkPHnxEv/ABjdGCMvbaRG2YrbPL/7UnqfboP1riqxlPsbQp9WSTzzXVw9xcTSTTSHc8kjFmY+pJ61HRRWRqJ9KWijFAwooooAKKKKACiiigApKKWgC9pGsahoOoJfaZdSW1yn8aH7w9GHRh7Gvoj4f/Eyz8XxixvAlrq6rkxA/LMB1ZP6r1HuK+aakgnltp454JHimjYOkiHDKw6EGrjKxEoKR9pUV598M/iCni7TzZXzKmsWyjzAOBMv99R/Mdvxr0Gt07nM1bQKKKKYBRRRQAUUUUAFFFFABRRRQAUUUUAFFFFABRRRQAUjKG+vY0tFADQxBw34H1p1BAIwelM5T1K/qKAH0UAgjIooAKKa+dpx1puSo4ywPT60ASVGTnkk46ADvS5bP3lY9xTV7AcMvY9xQAhGMsuQw7GlO1upIzztpTnJzjcRgAU8DAA9KAGqgwCw59zmn0UUAFFFFABRRRQAUUUUAFFFFABRRRQAUUUUAFFFFABRRRQAUUUUAFFFFABRRRQAUjKG9j2NLRQA1Sc4Yc+vrTqQnGMdTTSTnk4+gzQA+imbyDzg/SnMC3GcDvQA0kucD7vc08AAYHSgDAwKKACiiigAooooAKKKKACiiigAooooAKKKKACiiigAooooAKKKKACiiigAooooAKKKKACkCgE46elLTC42kj9aAH00sScLjjqTSFmXqBgd/Wm/wLnpn5qAFXKnPBU9cdqABkKf+AkUAruJH3cc0KrbVBPHB96ABkLDacH3p4AAwBS0UAFFFFABRRRQAUUUUAFFFFABRRRQAUUUUAFFFFABRRRQBBc3MNnay3NxKsUMSl5Hc4CqOSTXzJ8RPHtx4y1XZCXj0m3b/R4TxvP/AD0b3PYdh+NdX8ZfHBu7pvC+nykQQkG9ZT99+oj+g6n3+leQVjOXQ2pw6sKKKKyNgoop8MMtzOkMETyzSHakcalmY+gA60CGUHgZPAr1Pwx8E9W1JUudcn/s2A4PkoA8xHv/AAr+p9q9X0P4b+FdB2tbaVFNMv8Ay3uv3r/+PcD8AK0VNsh1Ej5lsNC1bVT/AMS/S726HrDAzD88Yretvhd40uQCuhSoD/z1ljT+bV9TKqqoCgADoBSnjoOtV7NEe1Z8x/8ACn/G2P8AkFw/T7XH/jVS5+GHjS1BL6DO4/6ZSRyfyavqUk55IH0GaN2MZwafs0L2rPjm/wBH1TS2xqGm3dof+m8DIPzIqj1HHT1r7TliWVCjgFDwykZyK5HXPhf4U11WaTTUtZz/AMtrP9035D5T+INS6fYpVe58t0V6P4r+Dut6Er3WmN/almvJEaYmQe6fxf8AAfyrzgjB6Vm01uaKSewUUUUii7pGq3eh6rbalYSmO5t33oex9QfYjg19YeGPEFr4o8P2uq2vCyr86E8xuPvKfoa+Qq9P+C3ig6V4jbRLiTFrqPMYJ4WYDj8xx+C1pCVnYzqRurn0PRRRW5zhRRRQAUUUUAFFFFABRRRQAUUUUAFFFFABRRRQAUUUUAFFFFACBQCSO/alppcbSQQcUm5gOQDjqaAFLHOAMmmjcpJONp647UnVM9t3zUo27xsx74oAMAHae5yDQykjBAb0NIqsUwMbT09qloARVCjgCloooAKKKKACiiigAooooAKKKKACiiigAooooAKKKKACiiigAooooAKKKKACiiigAooooAKKKaSWO1fxPpQAH7y01lOTx+lPwCMHn60bF9KAG4IjOafSbVHOBxS9elABRRRQAUUUUAFFFFABRRRQAUUUUAFFFFABRRRQAUUUUAFFFFABRRRQAUUUUAFFFFABRRSEgDJOKABgCpB6VF99iA2ePzpzOpKjPGeaGVi2dy5HSgBASww3B7H0NG4qclSB/FQSCC2ORwR608JzySfrQAh5YbjlT09KfTQgBz+XtTqACiiigAooooAKKKKACiiigAooooAKKKKACiiigAooooAK5T4g+Kl8JeFZ72Mr9sl/c2qnvIe+PQDJ/Cuq6Cvmr4veJTrvjGSzhfNppuYEAPBk/jP54X/gNRN2RUI3ZwMkjyyPJI7O7sWZ2OSxPUmm0UVznSFFFdJ4K8G3vjLWhaW+YraPDXNyRkRL/Vj2FNK+gNpIi8K+ENV8X6j9l0+LEaEefcv/AKuEe/qfRRzX0Z4Q8BaN4Pth9kh869ZcS3kozI3sP7o9h+tbGh6Hp/h3SodO02AQ28XbqWPdmPcn1rTreMLHPKbYUUUVZAU1uq/X+lBJJ2r+J9KXAxg8/WgBjD5umfwpcERnNLsX0pdqjtQAtFAIPQ0UAJ1rzn4gfC6y8TRS6hpiJa6wBuJAwlx7P6H/AGvzzXo9FJq407bHxfd2lxYXc1pdwvDcQsUkjcYKsOxqGvoP4v8AgVdY0t9f0+H/AImNomZlUczxD/2Zeo9sj0r58rnlGzOiMroKkt7ia1uYrm3cpNC6yRsP4WByD+dR0VJR9heHtXj17w9YapF926hWTA/hOOR+ByK1K8s+Beqm68J3WnO2Wsbk7fZHG4f+Pbq9Trpi7q5yyVnYKKKKoQUUUUAFFFFABRRRQAUUUUAFFFFABRRRQAUUUUAFB5FHTrUbOpAGRgnmgBo5baHBwMUoOV2Nx2z6GlZXJ7ADpSEhgScbhwR60ALuKndtP+16Up5IGfkPp3pQucZYkeho2DPfHXFADqKKKACiiigAooooAKKKKACiiigAooooAKKKKACiiigAooooAKKKKACiiigAooooAKKKKACiimElzgdO5oACSxwpwO5pwAAwKUAAYHSigAooooAKYVK8r+Ip9FACKwYcUtNZcnI4PrQG5w3B/nQA6iiigAooooAKKKKACiiigAooooAKKKKACiiigAooooAKKKKACiiigAoopGO1SfSgBelRk8luuMAUY5wQGbqc9BRwFb5e+CBQApyCAxyDx0pirg525IOBinDrwGJ/2u1PUbRigBFXHJA3etOoooAQjIwabkpw3I9afRQAUUzBT7vI9KcCGGRQAtFFFABRRRQAUUUUAFFFFABRRRQAUUUUAFFFFAGJ4t1tfDnhXUdVJG+CEmMHu54Uf99EV8jO7yOzuxZ2JZmPcnqa90+POsGHStM0dG5uJWnlH+ynA/8AHm/8drwmsKj1sb0lpcKKKKzNS5pWl3etarbabYx+Zc3DhEHb6n2A5P0r6s8J+GLPwnoMOm2i5YfNNKRzLJ3Y/wBPQYrgPgp4RWz0x/El5GPPuwUtQR9yLPLfViPyA9a9dreEbanPUld2Ciio5JEijaSR1RFBLMxwAPU1oZklMLbjtU/U1494x+NkNtJJY+GI0uHB2teyg+WD/sD+L6nj615JqvirXtbctqOrXcwP/LPzCqD6KuB+lZuokWqbZ9b/AGu1Q7PPiB9C4zUwIPI6V8V4BOcc1o6br2r6PIH07VLy1I7RTMF/756Gl7Ur2XmfYtFeF+EfjdcxzR2nieNZYScfbYEwy+7oOo91/I17ba3UF7axXNrMk0Eqh0kjbKsD3Bq1JPYzcWtyUrzleD/OhWzweD6U6kZQ3X86oQtFMDFThvwNPoAQjIweRXyt8RvDQ8MeMrq1iTbaT/6RbDsEbqv4NkfTFfVVeTfHbRxc+HbLV0UeZZz+W5x/yzk4/wDQgv51E1dF03ZngVFFFc50nqnwIvjD4r1CzLYW4tN4H+0jD+jGvoKvmP4PzGL4laeucCSKZD/3wT/7LX05XRT2OaoveCiiirICiiigAooooAKKKKACiiigAooooAKKKKACignAzUeM4yNxPOD0FACseSTyFGce9ByMbsEHgjFJ8oDfLj1AoHsHJHQGgBgQBj8pIXpj/P0qULzuYDOfypVGBz1PJpaACkIBGDS0UAMyU+9yvrT6KZtKcryPSgB9FIGDDIpaACiiigAooooAKKKKACiiigAooooAKKKKACiiigAooooAKKKKACiiigAoopn+s/3f50AGd/A+73PrTwMDAoooAKKKKACiiigAooooAKQqGGDS0UAMyU4bketPopmCn3eR6UAPopAQwyKWgAooooAKKKKACiiigAooooAKKKKACiiigAooooAKYSxYgHGOg9afTGOTnIAU9aADfkADhjxz2prBSpwSTkDOacNrNuB5HWkCfKcMOuc0AKMt8ykA9COtIBu4ByM5J9aQLzuToBj609RyTjAPagB1FFFABRRRQAUUUUAFNK85Xg/zp1FADVbPB4PpTqRlDD+RpAxU4b8DQA6iiigAooooAKKKKACiiigAooooAKKKQ9KAPmf4xan/AGh8QrmINujsoo7dfrjcf1b9K4KtLxDfHVPEmp3xP/HxdSyD6bjj9MVm1yvVnVHRBWv4X0KXxL4lsdJiyBcSYkYfwxjlz+WayK9r+A+gDbqOvypyT9lgJ9BhnP8A6CPwNOKuxSdkey21vFaWsVtAgjhiQIiDoqgYAqaiiuk5hCwUEk4A6k186/E/4kyeIrqXR9JmK6PE22SRT/x9MP8A2T0Hfr6V2/xm8XvpOiR6JZSFLrUFPmspwVh6H/vo/L9N1fPvT6VlUl0NacerCirulaTf63qEdhptrJc3Mn3UQdvUnsPc17F4f+BMCwrN4h1CR5Tgm3tDtUexcjJ/ACs1FvY1cktzxCivp6L4SeCY49h0bzD/AHnuJCf/AEKsPXPgdoV3A7aRcXFhcfwhnMsZ+oPzfkar2bJVRHz7Xp3wi8cSaLrEehXspOm3r7Ytx4hlPTH+y3Q++D61weu6Ff8AhzVptN1KHy7iPng5V17Mp7g1nAspBUlWHII7GpTcWU0pI+1aKxvCmqnW/Cml6k3L3Fsjv/vY+b9c1s10I5WBGRg0zlOnK/yp9FMBAQRkVzHxEsf7Q+H2twYyRatKPqnzj/0GumKkHK9e49azfEG2Tw1qqngG0mBB/wBw0nsNbnx7RSL9xfoKWuY6js/hQCfiZo+PWX/0U1fUVfM3wchM3xIsmxkRQTOf++dv/s1fTNbU9jCruLRRRWhmFFFFABRRRQAUUUUAFFFFABRRRQAwklsA4wMj3o38cD5s4xQ3zHjA2/xelA2swYHkdaAGtgq43EkD1pRluQQGHBBo2HDYI5PH50gHOUPTqfWgBfvZAOSep7VJTF+8SAQPQ+tPoAKKKKACiiigAooooAay5OVOGoVsnBGD6U6kKhhzQAtFM3FThunrT6ACiiigAooooAKKKKACiiigAooooAKKKKACiiigAooooAKKKaWJO1evc+lACf6z/d/nT6KKACiiigAooooAKKKKACiiigAooooAKKKKAGledy8H+dCtng8H0p1Iyhh/I0ALRTQxU4b8DTqACiiigAooooAKKKKACiiigAooooAKKKKACox0HGdp5FP3Ddt6n+VBUE55B9RQA3PzbsEADvQsa7RlRmlC85JJ+tOoAKKKKACiiigAooooAKKKKACiiigAoIyMGiigBnKe6/qKeCCMjpRTSpByvXuPWgB1FIrBvYjqKWgAooooAKKKKACiiigArO167+weHtSuwcGC1lkz9FJrRrlPiVObb4c65IOCbYp/30Qv9aT2BbnymM7RnrilpT1NJXKdYHgZxmvrXwPoo0DwZpenlcSpAHl4/wCWjfM36k18y+DtL/trxjpGnldyS3KmQf7C/M36Ka+uugramuplVfQWmH5/93+dH+s/3f51W1W6+w6Re3Q6wQPJ/wB8qTWpifLfxA1pte8b6pdht0KSmCHHQInyjH1OT+NYenafdarqNvp9lEZbm4cRxoO5P9O9Vdxf5m5Lck+9ezfArw6kkt/4hnQExn7LbE9jjLt+qj8650uZnS3yxPSPBXgyx8G6QttAqyXcgBubnGDI39FHYV0ck0UJQSSIhkbYgZsbm9B6ng1JXjPxi8SXWj+LfDYh5WyP27Znh23bcf8AfIYf8Crb4UYJczPZ6Kz9H1ez1zS7fUbCYS2067lYdvUH0I6EVfqiTyL486XC+h6bqu0CeG5+z7u5R1Jx+aj8zXg/SvXvjh4ngvb208P2sgf7I5muipyA5GFX6gEk/UVwngjwrP4u8S29gqt9lUiS6kHRIwefxPQfX2rCWstDohpHU+i/h1aSWXw90OGUYf7KrkH/AGvm/rXUUyONYo1jRQqKAqgdABT62RzvUKKKKYBWD40uVs/BWtXDHGyylwfcqQP51vV518aNUWw8BSWoYCS/mSADvtB3N+i/rUydkOKuz5tHAA9KWg80nSuc6j1r4DWJl8R6pfFcrBarED7u2f5JXvteY/A/STZeDJb91w9/cM6n1RflH6hq9OrogrI5pu7CiiiqJCiiigAooooAKKKKACiiigAoopCQCB3NADMcYxnDZIpc5YNggAckjFOK5OckH1FJsz94k0AIqKVyR15p/SiigAooooAKKKKACiiigAooooAKKKKADrTMFOnK+npT6KAEBBGQcilppUg5Xg+nrSqwb2PcUALRRRQAUUUUAFFFFABRRRQAUUUUAFFFFABRSEhRk03BfluB6UAGS/ThfX1pwAAwBxS0UAFFFFABRRRQAUUUUAFFFFABRRRQAUUUUAFFFFABRRRQAEZGDTOU9Sv8qfRQAAgjI6UU0qQcr+I9aVWDfXuKAFooooAKKKKACiiigAooooAKaWOdq9e59KCSTtXr3PpSgBRgUACqFHFLRRQAUUUUAFFFFABRRRQAUUUUAFFFFABRRRQAUUUUAFFFFACMueeh7GkDHOG4P86dSEAjBHFAC0UzJTryvr6U/rQAUUUUAFFFFACdq4X4wTeV8NdRH/PR4U/8iL/hXddq88+NTY+Hc49bmEf+PVMthx+JHzbRRRXMdZ6X8ENPFz43mvGHy2dozA/7TEKP03V9EAb+T93sPWvHPgHYj7DrV+w+/NHCv/AVLH/0IV7NXRD4TmqP3hO9ZHisE+ENaC9fsE//AKLateq2o2323Tbq1P8Ay2heP/vpSKpkLc+M16D6V9PfCO2S3+GulsoG6bzJW+pkb/AV8xFGjOxhhk+Uj3HFfTHwdvVu/hxYxg/NbSSwN/32WH6MKyp7m9XY72vMvi54HuvE2n2+paZH5t/ZKymEdZYzyQP9oEZA75Nem0Vq1dWMU7O58meHPGGv+C7yVbCYxgt++s7hCULe68FT7jBrpNW+NfifULJre3jtNP3DDTQBi/4Fjha951TwzomtkNqelWd039+WFS359ap2XgTwrYSCS30DT1cchjAGI/PNQotdS+eL1aPnPwz4G1/xhdb7W3dLZmzJe3GQnuc9XP0r6O8JeEtO8H6QtjYKWdvmnncfPM3qfb0Hat5VCqAoAA4AApacYpEym5C0UUVZIUUUUAJ0r52+NfiAap4sj0uF90Gmx7WwePNbBb8htH517X4x8SweFPDV1qkuDIo2QRn/AJaSH7q/1PsDXyZc3E13dS3NxIZJpnaSRz1Zick1lUfQ1pR1uR1PZ2k9/e29nbLvnnkWKNR3ZjgVBXq3wT8Ktf61L4huI/8ARrHMcBI4aUjk/wDAVP5tWaV3Y1k7K57do2lR6Ho1lp1t/qrWFYh/tYHX6nrWiGDDilppXJyDg+tdByjqKaGycEYNOpgFFFFABRRRQAUUUUAFFFNZscDlj2oAGbHA5J6ChVxyeSe9Crjk8k9TTqACiiigAooooAKKKKACiiigAooooAKKKKACiiigAooooAKRlDex7GlooAaGIOG69j606kIBGCMim8p15X17igB9FAORkUUAFFFFABRRRQAUUUUAFNZscdT6UFiTtXr3PpSqoX69zQAgXnLcn+VOoooAKKKKACiiigAooooAKKKKACiiigAooooAKKKKACiiigAooooAKKKKACkZc89D2NLRQA0Mc7W4P86dSEAjBFNyU68r6+lAD6KOtFABRRRQAU0ksdq/ifSkJLHCnA7mnAADAoAAAowKWiigAooooAKKKKACiiigAooooAKKKKACiiigAooooAKKKKACiiigAooooAKZtK8r09KfRQAgYMOKWmsuTkHDetAbJwRhqAHUUUUAJ2rzv41DPw7mPpdQn/x6vRO1cH8Yo9/w21Bv7kkLf+RF/wAamWw4/Ej5mpKKWuc6j6O+CVt5Hw/EuOZ7uV8/TC/+y16PXG/CmHyfhpowxgvG7n/gTsa7KuiOxyy3YtB6UUVQj5P+IOjnRPHWq2u3bE8xni/3H+YfqSPwrtPgb4jSy1i70G4fCXo82DP/AD0UfMPxXn/gNdD8b/CzX+lQeILZN01iPLuAOphJ6/8AAW/QmvCbW6nsruG6tpWinhcSRyL1Vgcg1g/dkdC96J9o0VyXgPxtaeMtFWUFY9QhAW6t8/db+8P9k9vyrra2Tuc7VgooopgFFFFABRRRQAVDPPFa28k88ixxRqXd3OAqjqSah1HU7PSbGS91C5jtraMZeSRsAf8A1/avnj4ifE248WM2nad5lvo6tyDw9wR3b0X0X8/aZSSKjFyZn/Efxu/jHXP3BZdLtcrbIeN/rIR6nt6D8a4yirFjY3Wp30NlZQPPczNsjjQcsa53qdCSSLegaFe+JNbttLsUzNM3LEcRr3ZvYV9YaDolp4d0S10qyXENum3J6se7H3Jya574e+BLfwZpOZNkuqXABuZh0Hoi/wCyP1PNdpW0I2MZzuFFFFaGYhUMMGm5K8N09afRQAUUzBT7vK+lOBDDIoAWiiigAooprMc7V6/yoAGbnA5b+VKqhfcnqaFUKPfuaWgAooooAKKKKACiiigAooooAKKKKACiiigAooooAKKKKACiiigAooooAKKKKAGFSpyv4inKwbp+VLTWXJyOG9aAHUU0NzhuD/OnUAFFFISFGTQAtMyX6cL6+tGC3LcD0p9ACAADAHFLRRQAUUUUAFFFFABRRRQAUUUUAFFFFABRRRQAUUUUAFFFFABRRRQAUUUUAFFFFABRRRQAUUUUAIFC5xRuX1FIQCxyM4FN3H2x6UASUwkscDgdzQBhgRjn0FPoAAABgdKKKKACiiigAooooAKKKKACiiigAooooAKKKKACiiigApKwvE/izSfCWnG71OfaW4ihTmSU+ij+vQV4D4r+KviDxK8kMEzabp5OBBbvh2H+2/U/QYFRKaRUYNnu+u+PfDXh0tHf6pCJ1/5YRfvJP++V6fjXBal8e7GNmXTNFuJx2e4lWIfkNxrwuis3UZqqaPUrj47+I5CfI07TYR7q7n/0IVXX44+K1bJh0xh6eQ//AMXXmtFTzyK5Inr1l8fNSRx9u0S0lXv5EzIf/Ht1dlo3xn8LakVju3n02U/8/KZTP++uR+eK+b6KaqNCdNM+z7W7t723S4tZ4p4XGVkicMrfQip6+PdD8Sav4buvtGk38tsxOWRTlH/3lPBr3DwX8YtP1t47HXFj0++bCrLn9xKfqfun2PHvWkZpmUqbR6lSFQwwaUHNIfun6VoQL0oqsoL9ST9TSnMeQCfwNAE5O0ZNcf8AE+Az/DfW89VgDgem1lb+ldjWN4ttRe+ENZtsZMllMAPfYcUnsNbnyGeppB1pAcqD6ilrmOo+r/h3H5Xw90Ff+nOM/mM109c/4FGPAmgj/pwh/wDQBXQV0rY5XuFFFFMRFNDHcQvDKivHIpV1YZDA9Qa+ZfiL4BuPB+qGa3R5NHuH/cS9fLP/ADzb39D3HvX0/VW/sLTVLKayvrdJ7aZSskcgyGFTKPMVGXKz5B0fWb/QdTi1DTbhoLmPow6Edww7g+le++EPjDo2tRx22sMmmX/TLn9zIf8AZY/d+jfma4Xxr8HdQ0l5L7w+sl/YfeNv1mi+n98fr9eteXspVmRgQynDAjBB9DWN5RNrRmfaMcscsayRurowyGU5BH1p+a+OtN17V9GP/Et1S7tB/dhmZV/756V0cHxW8awKFGts4/6aQRsf/Qav2iIdJn1FRmvl6X4seNpVwda2f7lvGP8A2Wsa98YeJdRUrd69qEqHqnnso/JcUe0QlSZ9Tar4k0XQ0Lanqlra4H3ZJQGP0Xqa838Q/HTTbZXh0GykvZegnnBjiHvj7zfpXgxJZi5yWPUnqaKl1GWqaW5seIPFGseJ7sXGrXrzkfcjHyxx/wC6vQfXrWPUttbT3lwltawSTzvwscSFmb8BXqHhT4KanqLJc+IJDp9t1+zxkNM/1PRP1P0qUmy21E8+0Hw9qniXUlsdLtWnlPLnoka/3mbsK+j/AAL8PdP8GWnmcXOpyria6I6f7KDsv6nvXQaLoOmeHrBbLS7SO2gXkhRyx9WPUn3NadbRhYwnO4UUUVZAUUUUAFFFFABTcKDu6U6m9X/CgA3j3/KlBB6EGo9xz1xTgOVPrQApJztXr6+lKqhRxS0UAFFFFABRRRQAUUUUAFFFFABRRRQAUUUUAFFFFABRRRQAUUUUAFFFFABRRRQAUUUUAFFFFACEBhg0vQUHpVZcv94k89zQBZpNo3ZPJ7e1QN+7J5P4GrA6UAFFFFABRRRQAUUUUAFFFFABRRRQAUUUUAFFFFABRRRQAUUUUAFFFFABRRRQAUUUUAFFFFABRRRQAUhYAgdSe1IzY4HJPahVxyeSepoADkMSBnNN2nPT9akooAbySCRjFOpDnHB5pFbPB4PpQA6iiigAooooAKKKKACiiigAooooAKKKKACiiigArnvGHiuy8IaFLqN188h+SCAHDSydgP5k9hXQE4FfLfxK8WP4q8VzPFITYWhMFqOxAPzP+JH5AVE5WRUI3Zga7ruoeI9Wl1LUpzLPJ0H8Ma9lUdlFZtFFYbnSlYKKK6Lwt4J1vxdOV023At1bEl1L8sSe2e59hQlcG0tznaXHtX0Bo3wM0O0RW1a7udQm7qjeTH+Q+b9a6iL4ZeDIl2r4ftCP9sMx/Mmr9mzP2qPlbpRX1DdfCjwXdIR/YqQsf4oJHQj8jiuO1r4DW7K0mh6tJE/aG8Xep/4EuCPyNDpsaqI8PoNbXiHwlrnhecR6tYvCrHCTL80T/Rhx+B5rFqLNF3TPTPh78Vbnw88Wl608lxpP3UlPzSW3/wAUvt1Hb0r6CtrqC+tI7i2lSWCVQySIchlPQg+lfGHWvRfhn8RZPCt4um6jIz6NM3U8/ZmP8Q/2fUfj9dITtozKcOqPowQsO4oMJPVhTo5EmjWSNleNgCrKcgj1FSVsYhUcsaywvG33XUqfoacSynPVf5UuQRkcigD4vurdrS7ntnGGhkaMj/dYj+lRV0vxCsDp3j/W4Nu0G5aVR7OA/wD7NXNjqK5XudSd0fWXgJ9/gHQT/wBOMX/oIro65L4ZSed8N9Cb0ttv5Ej+ldbXStjme4UUUUxBRRRQAVzfiLwJ4d8T5fUdOjNwRgXMX7uUf8CHX8c10lFJq4LQ8R1b4CPuZ9H1oY7R3kXT/gS//E1yl18HPGdsxEdlbXIH8UNyvP4Ntr6YoqfZotVJHyu3wx8aK2DoFwfpJGf/AGapoPhR41nPGimP3knjX/2avqOkpezQ/as+eLH4G+Jrgg3d1p9ovf52kb8gMfrXY6R8CdEtWV9Uv7q+YfwJiFD+WW/WvV6KagkJzbMvR/DukaBB5Oladb2id/LTBb6nqfxrUooqkRcKKKKYBRRRQAUUUUAFFFNZscDknoKAFLYwOpPagg5yMfjSKuOTyT1NOoAZtOeg/OlwSQTjj0p1Ic44ODQAtFNVsnB4b0p1ABRRRQAUUUUAFFFFABRRRQAUUUUAFFFFABRRRQAUUUUAFFFFABRRRQAUUUUAFFFFABRRTCS5wPu9z60AOBDZA/OohCw/iFTAADAooAhMLN/EKm7UU0kqcnlf5UAOooBBGRRQAUUUUAFFFFABRRRQAUUUUAFFFFABRRRQAUUUUAFFFFABRRRQAUUUUAFFFFABRRRQAU1mwcDlqGbnavX+VKq7R79zQAKu33J6mloooAKKKKACkZQw/kaWigBoYqcN+Bp1BGRg0zlPUr/KgB9FAIIyOlFABRRRQAUUUUAFFFFABRRRQAUUUUAcn8SdabQfAmp3UbbZ5E+zwn0Z/lz+AJP4V8q9K95+Pd20eg6TZg/LNdNIR/uof/iq8GrCo9TemtAoopUR5HVEXc7EKo9SegrM0O2+HHgKTxlqjS3O6PSbVh57jgyN2jU/zPYfWvpWysbbTrKKzs4Egt4V2xxxjAUVm+EvD8PhjwzZaVEBuiTMrD+OQ8sfzzVnXNbsfDukXGp6jL5dvCMnAyzHsoHck10Rioo55ScmaVGa+b/EPxk8R6rO66Y66XadFWIBpSPdz/7KK5geNvFQk8z/AISPVN3/AF8t/LpSdRDVJn1xRXzz4W+NGs6dcxwa8f7RsicNIFCzRj1GMBvoefeve7DULTUtPgv7OdJradA8ciHIYVSkmTKLW4+7tba9tZLe7hjmt5Bh45VDKw9wa8P8efB6SzSXVPDMbyW4y0lgfmdB6xnuP9nr6Z6V7qAWOWGB2FPocUxRk0fFPeivefih8MF1FJte0GAC+X57m1QcTjuyj+/7fxfXr4NWEo2OmMuY9n+Dfjso6eFtTl+Rv+PCRj0PeI/zX8R6V7fXxXHI8MqSxOySIwZHU4Kkcgivqb4eeLV8X+GIrmQqL6D9zdoP74H3vow5/Mdq0hK+hlUjbU66mlSDlevcetOorUyPnf446f8AZ/GNtfKpC3lqA3+8hIP6Fa8xr6C+Omk/a/CdpqSLl7G5G4jsjjaf/HttfPtc81ZnRTd4n0z8Hrjz/htYLnPkySx/+RGP9a72vKvgRdiXwjf2v8UF6W/BkU/0Neq1tHYxl8TCiiiqJCiiigAooooAKKKKACiiigAooooAKKKKACiiigAooooAKKKazc4HLfyoAGbHA5Y9qFXHJ5J6mlVQvuT1NLQAUUUUAFFFFACMoYc00MV4b8DT6OvWgAopmCnTlfT0pwIIyDxQAtFFFABRRRQAUUUUAFFFFABRRRQAUUUUAFFFFABRRRQAUUUUAFFFFABRRTP9Z/u/zoAOX6cL6+tPAwMCiigAooooAKKKKAGlSDlfxHrSqwb6+lLTWXPI4PrQA6imhudrcH+dOoAKKKKACiiigAooooAKKKKACiiigAooooAKKKKACiiigAooooAKKKKACmsxztXr/KgsSdq9e59KUKFGBQAKoUf1paKKACiiigAooooAKKKKACiiigBpUg5X8R60qsG+vcUtIy556HsaAFopoY5w3B/nTqACiiigAooooAKKKKACiiigDxf4/qfs+gN/DvnH6JXiNfQfx0083Hg+0vFBJtbxd3srgr/PbXz5XPPc6KfwhW34NiSbxtoUUgyjX8OQf94ViVYsLyTTtRtb6IfvLaZJl+qsD/SpW5b2Ps6vEPj5qcvnaPpSsRDtkuXH95shV/L5vzr2TTr+DVNOtr61cPBcRrJGwPYjNeXfHHw3cX+mWWt2sTSfYdyXAUZIjbB3fQEc/Wt5/Cc0PiPBaKKeIZTA8wjcxIwVnC8KxzgE+pwfyrnOkZXsfwL8ROL278PXDkxMhubYE/dYcOB9cg/ga8brsPhdO0HxI0YofvyOh+hjaqg7MmavE+p6KB0orpOYK8J+L/w+FlJJ4m0qLFvI2b2FBwjH/loPY9/fnua92qKeGK5gkgmRZIpFKOjDIZTwQamSuhxlZnxdXZfDLxUfC/i6B5nK2N5i3uQegBPyv/wE/oTUXxC8GyeDvETwRhjp9xmS0kP93uhPqv8ALBrkutYapnTpJH2rS1xXwu8SHxH4KtWmfdeWf+jTk9SVHyt+K4/Wu1roTucrVnYyPE+kLr3hjUdLYDNzAyLns2MqfzAr5BZGRmSRdrqdrKex7ivtSvl34paF/YXjy+CJtt7z/S4uOPm+8PwYN+dZ1F1NaT6HXfAO+8vUdasT0kiimHttLKf/AEIV7oOa+Z/g7f8A2L4iWsZbC3cMsBz643D9Vr6WwV5Xp6VVPYmp8Q+ikDBhxS1ZAUUUUAFFFFABRRRQAUUUUAZ99rmk6YSL/U7O1I5xNOqH8iaxpfiP4OhJD+IrA4/uybv5Vm+IfhN4Z8Q3c168M1peTMXkmt5MbmPcqciuG1H4CXqEnTNbglHZLmIof++lz/Kobl0LSj1PRD8UvBQ/5j9v+COf/ZaB8UvBR/5j9v8Aijj/ANlrw/UPhP4y0/Lf2WLpB/FazK/6HB/SuWvtI1PTGK3+n3dqR/z3hZP1IqOeS6FqEX1Pp6P4leDZPu+IbEf7zlf5irkPjbwvcf6vxDph/wC3pB/M18kA56HP0oPPWj2jH7Jdz7Ig1nTLr/j31G0l/wCuc6t/I1cDBgCCCD3FfFW1f7q/lViC/vLU5try4hI7xTMuPyNP2ovZeZ9mM3O1ev8AKlVdo9+5r5MtPHfiuxI8jxBqAA7SS+YP/Hs10Nl8aPGFqw86azvFHaa3Cn80Ip+0RLpM+lKK8R0/4+uMLqWg59XtZ/8A2Vh/Wuu034x+EL/Amu5rFz2uoSB/30uRVcyZLhJHoFFUtP1fTtVi83T7+2ukxndBKr/yq7VEhRRRQAUUUUAFNKkHK8H09adRQAisG9iOopaRlDex7GkDEHDcHsfWgB1FFFABRRRQAUUUUAFFFFABRRRQAUUUUAFFFFABRRRQAUUE4GTTMbzk/d7D1oAP9Z/u/wA6fRRQAUUUUAFFFFABRRRQAUUUUAIQGGDTclPvcr60+igAopm0pyvI9KcGDDIoAWiiigBFYN9e4paRlzz0PrSBudrcH+dADqKKKACiiigAooooAKKKKACiikJAGScUALRSEgAnt1pnJ+9uJ64BxigAY5yTnAOMClRsgA5z7imElAWUnHcH1p3OACQWzkYoAkooooAKKKKACiiigAooooAKKKKACiiigAooooAQgEYIpuSnXlfX0p9FAB1opm0ryvT0pwYMOKAFooooAKKKKACiiigDG8V6KviHwtqOlHAa4hZUJ7P1U/8AfQFfIkkckMrxSoUlRiroeqsOCK+1K+f/AIy+CpNN1RvEdlFmyu2/0oKP9VN/ePs38/rWdRdTWnKzseU0UUVgbnpvwz+Jy+GIxo+sGR9LLFopVG425PUY7r346V7pYa/o2sW4ksdSs7mNh/BKp/Mf418fUhAzkgZ9a0jNozlTT1PpbWvB3w2gke+1K1022JO5v9JMSt/wFWA/IV5V8QvFWhX9nbaB4XtI4dLtpfOeSOPYssmMDA6kAE5Y9ePSvPtoznAz60tJyuChbdhXf/BzTXvviFbThcx2UMk7H0+XYP1b9K4CvpL4R+EJPDfhtry9iKahqG2R1YfNHGPuKffkk/X2ogrsKjsj0Siiiug5wooooA5rxx4Vg8XeGp9Pfatwv7y2lI/1cg6fgeh9jXync201ndS21zG0U8LlJI26qwOCK+0K8M+NvhDyLmPxPZx/u5iIrwKOjdEf8fun8KyqR6mtOVnYyPgprx03xfJpkj4g1GLaATx5qZZf03D8q+i6+M9N1CXStUtNQgOJbWZZl/4Cc19i2lzHeWcF1CcxTRrIh9VIyKdN6WFVVncnry343eHv7R8MRaxCmZtOfL47xNgN+R2n869Sqve2kN/ZT2lwgeCeNo5FPdSMEVbV0QnZ3PkTw7qH9k+JtL1A8C3uo3b/AHdw3fpmvsIcivjzxDos/h/X77SLjO+3kKBj/Ev8LfipBr6n8G6n/bPg3SL/ADlpbVN5/wBoDDfqDWdPqjSrrZm2y5OQcN60BsnBGGp1IVDDBrUyFopmSvDdPWn0AFFFFABRRRQAUUVS1S9k07TZ7uKyuL1413C3tgDI/wBMkUAXaK8kn+Otja3LQT+HtShlU4ZJWRXH1U1LD8ePD7kedpupx/7qxt/7NU8yK5GerYprIrqVYAg9QRkVwFp8ZvB1yQJLy5tv+u1s/wD7KDXQWPjnwvqX/Hrr1g5/umYI35Ng0cyFytC6j4H8Mark3mh2LserrEEb/vpcGuRv/gn4WuC7273tnzgLHNvX8mB/nXpCuJFDB9wIyNh7UElAWByD1yO9Fkwu0eGah8B9QUk6ZrVtMOoS5iaM/TK5/lXJaj8LfGOmAs+jvcIP4rV1lz+A+b9K+ojuwA2N2eMU+pdNFqpI+MLq0ubGUxXltNbyD+GaMof1qGvs+5tLa8iMVzBFNGeqSIGB/A1yWqfCrwfqu5m0lLWRv47RjEfyHy/pUun2KVXufLtFe1at8BPvPo+tfSK8j/8AZ1/+JrgNa+HHivQgz3GkyzQr/wAtrQ+auPXjkfiKhwaLU4s5eGWS3lEsEjxSL0eNirD8RXY6N8VfF2jlV/tI3sQ/5Z3q+Z/49w361xfQkY5HUelFK7Q2kz3nQ/jtptwVi1vT5rNzwZoD5sf5feH5GvStI8QaTr1v5+l6hb3ad/KfJX6jqPxr48qW2uriyuUubWeWCdOVlicqw/EVaqPqQ6a6H2jRXzv4a+Net6YUh1mNdUthx5nCTKPr0b8fzr2bw1410LxXDu0y8VpgMvbyfJKn1X+oyK1UkzJwaOioooqiQpCARgjilooAZynXlfXuKeDkZFFNKlTlfxFADqKRWDdPypaACiiigAooooAKKKKACiiigAooooAKCQBk9KQkAZNNALHLcDsKAAAucnp2FPoooAKKKKACiiigAooooAKKKKACiiigAooooAKaVycg4anUUANVsnBGD6U6kKhhzTdxXhunrQA+kIBGCKWigBmSnXlfX0p/WimbSvK9PSgB9FIrBhkUtABRRRQAUUUUAFNfjaewPNDEjAHUnFMwOTs3AdyeaABlXjaAM96cCSSygZ7g9qaBtOBlkYZpQoZhwTjqWoAMZO3gnOT7U8ADoAKAABgDFLQAUUUUAFFFFABRRRQAUUUUAFFFFABRRRQAUUUUAFFFFABTWXJyDg06q15e22nWkl3eXEUFvENzySNtVR7mgCdW5wRg0teMeKvjhEjPa+G7QTYOPtlyCF+qp1P1OPpXQ/Cm98Savpd3rev38s8N24W1jZFVQqk5YADgE8D6VKkm7IpxaV2ej0UUVRIUUUUAFV7yzt7+zmtLuFJreZSkkbjIZT2NWKKAPnTxz8JNR0KWW+0SOS+0zljGvzTQD0I/iX3HPr615pX2tXLeIPAPhnxC7SX2lxG5b/lvD+7kPuSvX8c1lKn2NY1O58pUV71dfAXR5GJtNYv4B/ddUkA/QVWX4AWob5/ENwV9FtlH9ajkZftEeHVYs7K61G7S1sreW5uH+7FEhZj+Ar6D074IeFrRle6e+viOqyzbFP4IB/Ou50rQtK0O38jS9Pt7SPuIowC31PU/jVKm+onVXQ8w+HvwiOnXEOr+JFR7lCHhswdyxnsznozew4HvXsNFFaJJbGLbe4UUUVQgooooAKparpttrGlXWnXib7e4jMbj2P8AXvV2igD471/Rbnw7r13pN0P3ttJt3Y++vVWH1GDX0b8JtT/tP4d6duYtJa7rZif9g/L/AOOla5f44eFhdabB4jto/wB7aYiucDrET8rf8BY/kxqL4BXxbTtZ08t/qpo51H+8pU/+gCsorllY1k+aNz2SiiitTI8a+OXhfzba28S2yfPDiC6wP4Cfkb8Ccf8AAhWr8DtT+1+DZ7Bmy9jcsoHoj/MP1LV6LqWn22q6bc2F2m+3uI2jkX1BGK8Z+FcNx4T+JOseGLxjueI7D0Emw5Vh9UYms2rSuWneNj3GiiitCApmCnTlfSn0UAICGGRS00rzleD/ADpVbPB4PpQAtFFFABRRRQBm6roGk65D5WqadbXadB5sYJX6HqPwrzzW/gZol3uk0i8uNPkPRGPnR/kfmH516rTWOAAOp4FJxT3GpNbHzZffCvxP4fvUmNlHqFqDgyWjbsZ7lDz+Wa5bV7KKzjCrbEP5mWLD7nsQa+ucA9mYdzmsbWvC2ja/C0OpWMc6uvEgG11+jDmodPsWqnc+bEvNUWSO90XUri2YqAwhnZMH8Diuotfit4m0K1jiu7mDUpS2StwmCB/vLg/ic1b8WfB2+0m3a68OST30akl4icTBfbGA2PbB9jXlDqyyMrhg4OGDAgg+hz3rN3iaLlkfQOg/G/QbwrFqtpNpkpODIP3sX5jkflXpOn6nY6pardWF3DdQN0khcMP0r40q/pOtaloV4LrS72a1mzyY24b2YdG/GqVR9SXTXQ+x6SvJfBPxlttSki0/xGsdpdNhUu14hkP+1/cP6fSvWgQRkVqmnsZNNbi0UUUxHO6/4I8PeJVY6lpkLzH/AJeEGyUf8CHP515H4n+CGo2Kvc+H7j7fCOfs02FlA9j91v0r36ipcUylNo+Lri3mtLiS3uYZIZ4zteORSrKfQg1FX1Z4w8CaR4xtCt1H5V4i4hu4x86ex/vL7H9K+aPEXh3UPC+sS6ZqMe2VPmR1+7InZlPpWMoWNoz5jKqSCea2nSe3lkimjO5JI2Ksp9QR0qOioLPY/BPxolhaOw8UfvIuFW/RfmX/AK6KOv8AvD8q9ttriG7t47i3lSWGRQySI25WB7g18X13Xw8+Il14PvVtbpnm0aVv3kXUwk/xp/Ve/wBa1jPozKdPqj6coqG3uIbu2juIJFkhlUOjqchlPIIqatjEKKKKAGsuTkcH1oDc4bg/zp1IQGGDQAtFMyU4bketPoAKKKKACiiigAooooAKQkKMmgkKMmkAJO5uvYelAAAWO5vwHpTqKKACiiigAooooAKKKKACiiigAooooAKKKKACiiigAooooAKOtFFABRRRQAUUUUANK5OQcGgNk4IwadSEA9RQAtFFISACTQAxhl/m7/dPpRlv4jtA7jvQxJHJVQexo5ICk/MOQfWgAO7AYfMAc8daARj5XUD37UoAbJX5W70BSW3MB+FAAvJyPugYFPoooAKKKKACiiigAooooAKKKKACiiigAooooAKKKKACiiigAooooAp6nqNrpGm3GoXsoitrdC8jnsB/Ovl/xt461HxnqReZmh0+Nv8AR7QHhf8Aab1b37dq9B+O3iF1+weHoXIVh9quAD15wg/MMfwFeKVjUl0Nqcepr+FtCk8S+JbHSYyVE8n7xx/DGOWP5A/pX1xaWkFjZw2ltGscEKCONB0VQMAV4R8BrOOXxHql4wBaC1VFz23tz/6DXv1VTWlyaj1sMwU6cr6elOBBGQaWmlecrwf51oZjqKQcjkYpaACiqN1qtjZX1nZXNykNxeFlt1fjzCuMgHpnnpVxm7DkmgAZscDlj2oVccnknqaVV2+5PU0tABRRRQAUUUUAFFFFABRRRQAUUUUAFFFFAFa+s4NQsJ7K5QSQTxtHIp7qRg1478KdIufDPxJ8QaHcZPlWwKsf+Wihxsb8Q3869rqr/Z9oNS/tEW8f2zyvJ87b83l5ztz6Z5qWru407KxaoooqhBXn/jnSfsPiTQfGNuuHsrlLe9K97eQ7dx/3S35H2r0Cobi3iu7eS3njWSKRSjowyGB6ik1cadiYdKKQDApaYgooooAKRlDfXsaWigBoYg4b8D606ggEYPSkAwMUALTGGX5JH92nkgDJ6UxssMHAB9etACbm5ydoHU0EsNp+8Ac5FHzEbT94cj3pQM8r8p7igBATg7WXae/pSqASCPugYHvQEy25lAp9ABXmXxQ+HVvr2nz6xpsAj1eBS7BBj7So6g/7WOh/D6em01iAuSQAO9Jq402mfFdFWdSeGTVLx7f/AFLXEjR4/u7jj9KrVynUFe1fB3x7NLMnhfVJi/yn7DK554GTET9BlfoR6V4rVrTbyXTtUtL2BistvMkqkeqsDVRbTFJXR9mUU1GDIrDuM06uk5QooooAK4D4teF49f8ACE95HGDfacpniYDkoPvr+I5+oFd/UU8STwSQyDKOpVh6g8Umroadnc+LqKfNH5M8kX/PN2T8jimVynUFFFFAz3f4G+Jnu9Ou/D1w5ZrP99bZ/wCebHlfwb/0KvX6+ZPg9cPB8SbFFOFmimjb3Gwt/NRX01XRB3RzVFZi0UUVZAUUUUAFMwU+7yPSn0UAICGGRS00rzleD/OlBJHIwaAFooooAKRmCjmhmCj37CkVedzdf5UAAU53N1/lTqKKACiiigAooooAKKKKACiiigAooooAKKKKACiiigAooooAKKKKACiiigAooooAKKKKACkLBev6UtMfHByQe2KAAsS2FI6Z+tNZjuAYDrn6UgBAVg3Trx0p3XJxz0YetAC5Cs27v0OKbjIVehySPYUqsR8h4PalTuT97oc0AKqkEkkZ6cU6iigAooooAKKKKACiiigAooooAKKKKACiiigAooooAKKKKACiiigAooooA+X/AIt3DXHxK1QN0iEUS/QRqf5k1xNegfGXT3sviHcTkYS8gjmU+uBsP/oP615/XNLc6o/Cj1H4F6ilt4vvLGRsG7tfk92Rs4/It+VfQtfG2j6rc6JrFpqdocT2sokXPRvVT7EZH419aeHtdsvEmiW+qWMm6GZclc/Mjd1b3BrWm9LGNRa3NWiiitDMbkkZ4ApNxH8X5igDMYx2pEUgj2oA5T4heF28WeFZra34v7dhPaNnH7xR0z2yCR+XpXnngn4xSWG3S/FaynY3li925dCOMSr1OPUc+o717gvVvrXk3xP+F7aw8mu6FEPt+N1zbDj7R/tL/t/+hfXrEk90XFrZnqFhqFnqdol3Y3MVxbuMrJE4ZT+Iq3Xx5pWt6x4bvWl028uLKdWxIi8AkdmQ8H8RXqPh747TRhIfEGnCUDg3NnwfxQ8fkfwpKouo3Ta2PcqK5zQ/HPhzxEFGnarA0x/5YSHy5P8AvlsH8q6OruZ2aCiiimAUUUUAFFFFABRRRQAUUUUAFFFFABRRRQAUUUUAFFFFABRRRQAUUUUAIWC9aaWJPy46Z+tD4GDnB7UwZCqwII/lQA5mOQGGOc0ZUM2/Ge2fSjrk49mFCsfung9s0AJjIQdDkkewp6g5JOMn0pE7k/e70+gAoorE13xXonhuIvquowW7YyIy2ZG+ijk0mwNqvLfix8QodI06fQdNmD6ncJsmZDn7PGeuf9ojoO3X0rlfF3xrvdQSSz8OwvYwNwbqTHnMP9kdF+vJ+leTu7yOzuzM7HczMckn1JrOU+iNYU+rEooorE3Ct3wdoEviTxXYabEhKNKHmYfwxKcsfy4+pFVNE0DU/EeorY6XavcTH72BhYx/eZv4RX0p4C8CWfgrTCoYT6hOAbm5x1/2V9FH69auEWzOckkdeOBS0UV0HOFFFFABVa/u47DTrm8lOI4ImlY+yjP9Ks15V8aPF0enaGfD9tKDeXw/fAHmOHPOf97GPpmlJ2VxxV3Y8AdzK7SN1clj+PNNoorlOoKKKKBnoHwZtHufiLbzKMrbW8srH0yNo/8AQq+la8j+Bfh9rXSL3XZkw144hgyP+WaHk/i3/oNeu10QVkc1R3kFFFFWQFFFFABRRRQAU3JIzwBTqYBlBjsaADJ/vfmKcrZFMVTkcdPanL95vrQAoXDE9TS0UUAFFFFABRRRQAUUUUAFFFFABRRRQAUUUUAFFFFABRRRQAUUUUAFFFFABRRRQAUUUUAFFFNZgAeRkdqAFLAHHf0AzTAcs2Dhu2fSgA8KDjjJPrSMMg5wSp60AIAUy24MP4sU4AFsA8YyCO1AU7du3A7nNSAAdBQA3YMY/WlUADilppXncvB/nQA6imq2eOh9KdQAUUUUAFFFFABRRRQAUUUUAFFFFABRRRQAUUUUAFFFFABRRRQAUUUhIUEk4AoA86+L/hJ/EHhoX9nGXvtNLSKqjmSM/fX68Aj6e9fN9faMM0VzBHNDIskUihkdDkMD0INeBfFX4cPo1zNr2kQ502Vt1xEg/wCPdj/EP9g/ofaspxvqjWnK2jPK66jwV441HwZqJlt8zWUpH2i1ZsB/9oH+Fvf865eisk7M2aTR9b+HPF+j+KrEXOl3IkcD95A3EkR9GXt9elbqrjknJNfGVjfXem3kd3ZXMttcp92WJirCvWfDPxyurcJb+I7T7SnT7VbAK4/3k6H8MfSto1O5jKm1se6lVPVR+VJsX+6PyrH0LxVoniSHzNK1GC4OMtGDh1+qnkVtVaMrCZC4HTPSloIBGD0pnKepX9RTA43xl8NNF8XBrhl+x6ljAu4V5b/fX+L+fvXhHif4e+IfCru93aGezHS7twXjx/td1/GvqsEEcc0EAjB5BqJQTLjNo+KuuDwfQ10ej+PfFGhBVsdZuREvSKY+an5NnH4V754g+FfhbxAXlNn9ium586z+TJ91+6fyrzLW/gbrtmWfSbu31GPsj/uZP1+U/mKz5JLY0U4vct6X8edThwuq6Rb3I7vbSGJvyO4fyrsdO+NnhS82i6N5YuevnQ7lH4pmvBNU8O61ojFdT0q7tR/ekiO0/wDAhx+tZgOeRz9KOeSHyRZ9cWHjTwzqYH2PXbCQnovnqrf98nBrbSRJFDIwZT0IORXxYQD1GfrU9tfXlk260u7i3Yd4pWT+RpqqT7I+zsiivk618f8Ai2zI8nxDfkDtJJ5g/wDHga2bf4x+M4Mb762nA/562q/+y4qvaIn2TPpmivnyD47+IkAE2m6bL7gSIf8A0I1pQfH64HFx4ejb/rndkfzWnzoXs5HuNFeOR/H6yP8ArdAul/3J0b+gq3H8edBb/WaXqafQRn/2anzoXJI9YpK8xX46+Fj1tdVH/bFD/wCz1J/wvHwmf+Wepj/t3H/xVHOg5H2PSqK82/4Xh4S/ual/4Df/AF6afjj4TH/LLUz/ANu4/wDiqOdByvsel0teYN8dfCw6Wuqn/tig/wDZ6hk+PHh4fc03VG+qRj/2ajnQcj7HqtFeQv8AHzSx9zRL5vrJGP61Wf4/24+54dmP+9dKP/ZaOdByM9norw6X4/XJ/wBT4eiX/fuyf5LVOT4960f9Xo2nr/vSO3+FLnQ/ZyPfaQso6mvneb46eKH/ANXaaXF9InP82pNT+Lfiy28uKG5tUdl3Mwtgf5k0e0QezkfQobcW2kbs8Z9KASmSSCO+K+a5/iP4s1HSZZm1iSKWJsZijRQen+z71lXnjjWbi0aFNW1Ms4wxe5YAfTBpe0Q/Zs+p3eOPlpAqgfeJxism98W+GtOVvteuafGR1BuFLfkDmvkua5nuDmeeWU+skjN/OogAOgA+lT7Ur2R9LXvxi8G2IIhvJ7xvS3gY5P1bArk9T+PhwV0rQzntJdzY/wDHV/xrxXrRn14pe0bKVOJ2WsfFLxdrIZH1Q2kR/wCWdmvlf+Pfe/WuPd3kkaSR2d25Z2OSfqadb2893II7WGWdz/DEhc/pXVaZ8MvGGqEGPRZoEP8AHdMIh+R5/Sp1ZXuo5GivYtK+Al2+G1fWYoh1MdpGXP8A302P5V3ujfCfwjo5V/7O+2zDkSXreb/47939KpQbJdRI+c9H8O6x4gm8vStNuLvnBdE+Rfqx+UfnXqXhv4FzOUn8R3wRev2W0OT9Gc/0H417bFDHBEsUMaxxqMKqrgD8Kkq1TS3M3Ub2M7SND03QLFbPS7KK1gH8MY+8fUnqT7mtGiirMwooopgFJXM+JPH3h3wsrLqF8rXIHFrB88p/AdPxxXivi34v634gD2unA6XYtwRG+ZXH+0/b6L+dQ5pFRg2emeO/inp3hhJLHTmS91fG3YDmOA+rkd/9kc+uK+d9Qv7vVL+a+vp3nuZ23ySP1Y/57VWorGUmzeMVEKKKKksK6Hwb4Tu/GGvxafbhkgXD3M4HEUf+J6Af4UnhPwdqvjDUfs1hFthQjz7lx+7iHv6n0UV9M+FvC2neEtHTT9PT/almYfPK/dm/w7VpGNzOc7aI07Cyt9NsILK1jEdvbxiONAOigYFcJ8QvifbeEwdP09Y7rV2HKMcpAPV8d/RfxOKyfiF8XINNWXSvDsqTX3Ky3Y+ZIfZf7zfoPfpXg8ssk8zzTSNJI7FndzksT1JPc1Up20REIX1Z9V+AfEk3irwhaancqi3LFo5hGMLuVsZA9+D+NdRXmvwOOfAL+17L/Ja9KrSOqM5aMKKKKYgpCQoyaGYKMmql5e2unWr3l/cxW8EYy0kjBVUfU0AWlBJ3N17D0oKr3Arx3xN8c4IGe38OWf2hhx9ruQVT/gKdT+OK8r1nxr4k19m/tHV7l42/5Yxt5cf/AHyuB+dZuokWqbZ9P3/ibw9pZIvtX0+3YdVknQN+Wc1kP8UfBMR2nX7b/gKuR+i18sgAHIGCaXPvUuoy/ZI+rrX4ieELxwkPiGx3HoJJdn/oWK6G3uoLuIS200c0Z6PGwYH8RXxd+oq5p2qX+kTifTb24tJR/FBIU/PHX8aFU7h7LsfZdFeD+E/jdd28kdr4liFxCePtcC4kX3ZRw34YPsa9usNQtNUsoryxuI7i2lXckkbZDCtFJPYylFx3LVFFFUIKKKKACiiigAooooAKKKKACiiigAooooAKKKKACiiigAooooAKKjBIG7JI7+1DNnJJ+UenegBzckLnGetN/hyEXbSZCsGAwMc/jSkYXG47fQCgAOMgbScDgg0oUnAxhevPU0qg5LEYz2p1ABRRRQAUUUUAIyhvr2NIGIOG/A+tOoIBGD0oAKKZynuv6inggjIoAKKKKACiiigAooooAKKKKACiiigAooooAKKKKACiiigArnPHmotpPgXWbxTh1tmRD6M3yj9Wro683+Nt2bfwCYQcG5u4o8eoGX/9lpS2HHVmn8J7v7V8NtI+bLQq8B/4A7AfpiuxkRZUZHUMjDDKwyCPSvNfgZc+b4HnhzzDfSD8CFb+pr0xm5wv3v5Uo6oJaM8H+IXwjlsZJdU8MwtLbHLS2KDLxe6f3l/2eo7Z7eR4x1znvX2oFAHqe5rgPGvwr0nxSZLy1xp+qHkzIvySn/bXv9Rz9aiUOxpGp0Z81UVu+I/CGt+Fbjy9Vs2SInCXCfNE/wBG7fQ4NYVZNWNrp7D4pZIZVlikeOReVdGKsv0IrudC+L3irRtsc1ympQD+C8GW/wC+xz+ea4OihNrYGk9z6E0b45aBe7U1S1udOkPVsebH+a8/+O13+leIdH1tN+mana3YxnEUoLD6jqK+PKVWZHDqxVx0ZTgj8atVH1M3SXQ+0iMHK/iPWnKwb69xXyjpfxD8WaQAttrdy8Y6R3BEy/8Aj2TXYad8dtXi2jUdKtLnHV4XaJj+B3CrVREOmz3+ivLtO+Onhy5CrfWt9ZOepMYkUfipz+ldVYfEPwlqRAt9fsgx/hlfyj+TYquZMjlaOlZVZSrAEHggjiuc1TwD4V1clrzQ7Muf44k8tz+K4Nb8FzBdR+ZbzRyof4o3DD9KlzT0Yao8s1H4FeH7gE2N7f2behZZVH4MM/rXMX3wF1aNibDWbOcDoJo2iP6bq97oqeRDU5HzDd/CLxnaZK6bHcKO8Fwh/QkGsO68G+JrIE3Hh/UkA7i3Zh+a5r65pcUvZopVWfF01tcW5xPbzRH0kjZf5iody5+8v519qMiuu1lDD0IzVKbQ9JuOZ9MspT/t26N/MUvZFe18j4560Yr63m8E+FpzmTw9pZP/AF6oP6VUf4b+DZDz4dsB/ux4/lS9kx+1R8qY9qMe1fUx+F/go9fD9r+BYf1pP+FW+Cf+gBb/APfb/wDxVHs2HtUfLWPakwfevqYfC7wUP+ZftvxZ/wDGpF+Gngxenh6y/FSf60ezYe1R8rY9qSvrBfh54QTp4d078YAanTwT4Xj+74e0sf8Abqn+FHs2HtUfI+5f7w/Ok3r/AH1/OvsEeF9AjBMeh6aCPS0jH9Klj0jTIQGTT7QL6rAox+lHshe1PjsfN93n6c1oabpc99chPInKAbmKxt09OlfXot4I8lIURR/dUDNP+VWzjC4Gfxp+zD2p8qxWN7M/lweG72SDpuW0ckj1+7WrceENZuWSJ/DuqOFXKOsDcD0ya+liuFwW+X6c05RkliMZ7U/Zk+0Z80SfD/xdc24tbLw5cxQ5yxleNS35tTofg34zlID2VrD/ANdLpf8A2XNfS9FHs0HtWfPlv8CPEUgBn1HTYfZS7n/0EVs2vwBGAbvxC2e4htcfqWNe10U+RC9pI8xs/gb4XgwbifUbo9w0wQH/AL5A/nXR2Pw18H6fgw6DaMw6NODKf/Hia6uinyolybK1va29jH5dvBHFF2ESBQPwFWaKZgryvI9KoQ+iqtzqNlZpvuruCBfWWQIP1rnb/wCJfg/Tyyy67auw/hgJlP8A46DSuh2Z1lFeV6h8dvD8GRY2F/dt2LKsSn8zn9K5LUvjtrlxuXTtNsrRT0aQtMw/9BH6VPOilCTPoHNZGreJ9E0JC2p6pa2pH8Mko3H6L1P5V8yap4/8V6xuF3rl2EbrHA3lL+S4rmySzFycserHqal1OxSpdz3/AFr456Labo9Isri/kHSST9zH+vzH8q801/4p+KtfDxm++xW7f8sbP5OPdvvH864uioc2zRQigJySTyTyT60UUVBQUUdSBjk8Cu88MfCbxF4hKTXEP9mWTc+bcqd7D/ZTr+eKaTewNpbnCKrOwRFLMxwoAySfQV6n4M+DWoaoY73xD5lhZ/eFsOJpPr/cH6/SvUPDvgTw14Itmu1SMzouZL+7Ybl9cE8IPpiuU8W/Gyysg9p4cjW9n6G6kBES/wC6Or/oPc1ooJayMnJy0id7c3fh3wJoCB2t9NsIhiONRyx9AOrN+Zrw7xx8WNS8SeZY6X5lhpZyDg4lmH+0R90f7I/E1xOr61qWvX7XuqXkt1cN/FIeFHoo6KPYVQpSnfYqMLasKKKKzND6O+CKbfh+p/v3kzfqB/SvR64X4Pw+V8NdOb/no8z/APkRv8K7qumOxyS3YtIzBR/IUM20epPQVkeItes/DOiXGrag/wAkQ+VB952PRV9zTbEir4s8W6b4P0o32oPulbKwW6H55W9B7ep7fpXzX4r8Zav4vvvP1GYiBTmG1jP7uL6Duf8AaPNVvEviO/8AFOtTanqEmXb5Y4wfliTsi+38+tZHp71jKbex0Qglqworf0/wR4o1RFks9Cvnjbo7x+Wp/FsVfm+GHjSCPe2gzsO4jkjc/kGqbMrmRyNFT3ljd6dcG3vrWe2mHWOeMo35GoKnYe4UlLRQMK7P4e+PLnwdqwSZ3k0id/8ASYeuw/8APRfcd/UfhXGUU07CaTR9owTR3MEc8LrJFIodHU5DKRkEVLXlfwR8RtqPh6fRbh902nMPKz1MLZwPwOR+VeqV0p3Vzlas7BRRRTEFFFFABRRRQAUUUUAFFFFABRRRQAUUUUAFFFNLHOAMnrzQA6imhht3dMdaTLHuF74oAQEKxJPJ7AZoKrswDgE8UoO0k4JB5yKTHRT1JyR6UABAVsk544HrQFZVxjIPb0p4VV6AD6CloAQAhQCcmloooAKKKKACiiigAooooAKaVIOV/EetOooARWDfXuKWmsueRwfWgNztbg/zoAdRRRQAUUUUAFFFFABRRRQAUUUUAFFFFABRRRQAgrxv4/XO2w0O1B+/NLKR/uqB/wCzV7LXgfx7uC3iLSbYHiO0d/8Avp8f+y1E9i6fxGp8A7kmz1y0B5WWKQe2VIz/AOO17OqhR/WvAPgNc+X4o1O1Jx51mHA9Srj/AOKr6Aoh8IVF7wUUUVZBDcW8F1A8FxCksTjDJIoZWHuDXmviL4KaFqhefSJH0uc87EG+En/dPK/gfwr1Cik0mNNrY+XNd+FnivQyzmw+3QD/AJbWR8z81+8PyrjXVo5GR1KuvBVhgj8K+1MVlav4Z0TXkK6ppdrdccNJGNw+jdR+dZun2NFVfU+P6K+g9W+Bnh+73Npt5d2DnopPmoPwbn/x6uH1T4I+JrIlrGWz1BOwV/Kf8m4/WocGjRVEzzSitfU/Cuv6Pk6ho17Ao/jaElP++hkVkA56HNTZlXQUnseRS0UgHwTzWz77eWSFvWJyp/St6z8d+K7DAt/EGoADoskvmD8mzXO9KWndhZHoFp8ZvGVtjzbq0ugP+e1sB/6Dtrctfj3qqEfa9Es5R38qZk/mGryOinzsnkj2Pdrb4+aa5H2rQ72L/rlKj/z21sW/xu8IzEeYb+D/AK6WxP8A6CTXzjRVe0kL2SPqOD4q+CpwMa7Eh9JY3T+a1qW/jfwtdf6nxDph9jcov8zXyRQeevNNVGL2SPsiHWNMuP8AUajaSf7k6t/I1bWRHGVYMPY5r4r2rn7q/lUiSyR8pI6f7rEUe1F7LzPtLIoyK+No9W1KH/Valep/u3Dj+tWo/FHiCL7mu6ov0u5P8aftUL2R9gUcV8jL418UpwviPVf/AAKb/GpB478WD/mY9S/Gc0/aIPZM+teKOK+TB4/8XD/mY9R/7+//AFqP+E/8Xf8AQx6j/wB/f/rUvaIXsmfWRYAZNMBCk7iOewr5Tt/Hnij7VEZvEWomMMNwM5xirOoeI/F5umaHXdUaJ8EbLphj9aftEHs2fURUFMBuvShsBsnp2HrXyvqPiLXYdMhgm1vUGnY7mP2t8gc+/vWE+r6nJnzNSvXz13XLn+tL2qH7I+xPuR4b7p9+lQyanY26/vr23THUvKo/rXxy880n35pH/wB5yaiKqeqg/hR7TyH7LzPr2fxb4ctwTLr2mJ9bpM/zrNm+JfgyA/P4hsz/ANcyX/8AQQa+VQAOgApc+9L2jH7JH0vcfGPwZB9zUJ5/+uVrJ/UCsq5+O3hyMfuLHU5j7xog/Vq+fKKXtGP2cT2y5+P6YItfDrk9jNdAfoFNY118d/EMoIt9N02D3YPIf5ivLKKXOx+zidxd/F3xpdAgapHAp7QW6D9SCawbzxf4kvwRda9qMin+H7Qyr+QxWLRSux8qFkZpX3SMXb+853H9aTPb9KKKQwopPrS0hhRQeBk8CtLS/D2s6223TNLu7r/aiiJUf8C6frTsxXSM2ivTtH+B/iK9KtqVxa6dGTyufNk/JeP/AB6vQtF+DHhfTNr3kc2pzDnNy2Ez/uLgfnmqUGyHUSPnvTdK1DWLjyNNsri7l7rDGWx9fT8a9J8P/A7WL0rLrd3Fp0XUxR4llP8A7Kv6165qXiPwt4MtBDc3VnYoo+W2hUbj9I15/SvNPEPx1lcPD4e04Rg8C5vOT+CD+p/Cq5YrcnmlLY9B0bwV4T8E2xvEggjeMfNfXjguP+BNwv4Yrl/E3xu0qwDQaDAdRnHHnPlIV/8AZm/DH1rxLWfEOreIbjz9W1Ce6fOVV2+Vf91RwPwFZtJz7DVPqzb8Q+Ltc8Uz+Zq188qA5WBfliT6KP5nJrEooqG29zRJJaBRRRSGFKOopKRjhSfQUxH1X8NIfs/w50ND3tg//fRLf1rqmbHHUnoKyfDMH2PwppFsB80dlCuPogrWVccnknqa6Vscr3EC45PJr5p+KnjJvE/iNrS1kzplgxji29JH6M/9B7D3r2L4p+JW8OeDZzA5S8vT9mgI6ruHzN+C5/EivKvhp8Mn8TOmq6sjxaOh/dp0a6I7D0T1PfoPWond6IuFlqzE8F/DzVvGUoliH2XTlbD3ci8H1CD+I/oPWvffDPw+8PeFURrOyWW7A+a6uAHkJ9j/AA/8BxXSW9vDaW8dvbxJFDGoVI0XCqB2AqanGCQpTbExS0UVZBla54e0zxHp72WqWkdxEfu5HzIfVW6qfpXzD428JXHg7xA+nysZYHHmW0xH+sT3/wBodD/9evrKvLPjppqXHhK01Db+9tLpV3f7Lggj8wtZzimrlwlZ2Pn2iiisDpCiiigDvvg3qLWPxDt4d2I7yGSFvy3j9Vr6XHNfKXw4LL8RdCK9ftP6bWr6r2leV6dxW9PY56q1H0UgYMOKWtDMKKKKACiiigAooooAKKKKACiiigAooooAKY/YD73an1Gf4z3yPyoAUqTg9DxkUhU7nOO3FHyhl2YyT29KUAksdxAzQAuwdiR9DShQvSlooAKKKKACiiigAooooAKKKKACiiigAooooAKQgMMGlooAZkp97lfWn0UzBTleR6UAPopAwYZFLQAUUUUAFFFFABRRRQAUUUUAFFFMJLHav4mgBSSTtX8T6V85/G6Xf48jjHSKxjH5s5r6NACjAr5n+Mj7viReD+7BCP8Ax3P9azqbGlP4iP4Q3n2T4kaepOFuI5YT+Kbh+q19OV8g+Fb4ab4t0e9JwsV5EW/3dwB/Qmvr4dKKewVVqLRRVa6vbaxjEt3PHDGzBA8jbVyegyeK0MyzRSAggEEEGloAKKKKACiiigAxWJqfhHw9rAJ1DRrKdj1doQG/76HNbdFKwXPNdR+CXhW83Nam9sWPQQzb1H4PmuU1D4B3yEnTdcglH925hKH81z/KvdKWlyIpTkj5gv8A4SeMrDcRpiXSD+K2nVv0OD+lczfeH9Z0wn7dpN9bY7y27KPzxivsSjFR7NFKqz4pDDJGRn0pa+wr7w3ompgi90myuCe8kCsfzxXNXnwn8GXOQ2jrAT/HbyvH+gOKTpstVUfMVFfQN38CPD0oJtdQ1G3PoXRx+q/1rEu/gDOufsfiBG9prUj9Q1T7Nj9pE8Zor065+BnieHmC70yce0jof1Wsmf4ReNYASNLjmH/TK5jP8yKXKyuePc4eiulm+Hvi+D7/AIdvz/uIH/8AQSaz5vDHiC3/ANdoepx/W0k/wpWYcyMqip5LG8iP720uE/34WH9KgI2n5uPrxQMKKbvT++v50u5f7y/nQAtFJuHqPzoyPUUALViK+uoU2RzMFHQcHH51WyPUUbl/vD86AHu7yOXdizHqSabSb1/vr+dG5T/Ev50ALRSqrN91Wb6DNWI9Ovpj+6sbp/8AcgY/0oArUVrQ+FvENx/qdC1N/paSf4Veh+H3i+c4Tw7fj/fjCf8AoRFFmLmRzdFdrB8JfGs4z/Y4jH/TS4jX/wBmrSt/gj4tmP7xtOg/37gt/wCgrT5WHNHuecUV63b/AAD1Zj/pOt2UY/6ZQu/88VsW3wBsVI+1a/dSeoigVP5lqfIxe0ieGUV9G2vwR8JQEGYX9ye/mXG0f+OgVvWfw28HWJDQ6BZsw6GZTKf/AB4mmqbJ9qj5VjVpW2RKZG/uoNx/St6w8EeKNTwbTQb5lbo7xeWv5tivq210+zsV22lpBbr6RRhB+lWcCq9kT7Vnznp3wQ8U3eDdyWNivcPKZG/JRj9a67TvgNpcG1tS1W7usdUgVYh/7Mf1Fev0VSgiXUkzldJ+HnhPSNr2mi2zSDpJOPNb82ziujllgsrZ5ZXjgt4lyzMQqoo/QCpSpzleD6eteY/HG4mTwRBHGxVJL6NZRn7w2sQD7ZAP4U3ZIle8xviD43aFpxeHSIJdTmHHmA+XF/30eT+A/GvL9e+KnirXdyfbvsNuf+WVkNn5t94/nXF0Vi5tnQoJCszO7OxLM3LMTkn6mkooqCgooooGFFFFABRRRQAU+GIz3EUCjLSOqD8TimVt+DbMX3jXRLYjIe9iLfQHcf5U1uJvQ+toIVghSNeiqF/KpaQUtdRyHG+KvAsfi/xBpVxqNwTpdijlrRQczOxHU9lwOe/0rrYoo4IUiiRUjRQqoowFA6ACpaKVguFFFFMAooooAK85+NkyxfD10PWW6hQfnu/9lr0avDPjxray3mm6HE2TCGupgD0J+VB+W4/jUT0RUFeR45RRRXOdQUUUUAd18ILE3vxHsX25S1jlnb2+XaP1YV9N1478B9CMNjqOuyrg3DC2hP8Asryx/wC+sD/gNex10QVkc1R3kNK5ORwfWgNk4IwadSFQwwasgWimZK8N09afQAUUUUAFFFFABRRRQAUUUUAFFFISFGTQAEgDJNIVOcg4NABJ3N+A9KdQAzDf7K+4pwAAwKWigAooooAKKKKACiiigAooooAKKKKACiiigAooooAKKKKACiiigBpXJyDhqFbJwRg+lOpCoYc0ALRTNxU4bp60+gAooooAKKKKACiimElzgfd7n1oACS5wvTuaeAAMDpQAAMCigAr5i+L5z8TNT9khH/kNa+na+Yvi+MfEzU/dIT/5DFZ1NjSlucNkjleGHI+tfY2h3w1TQdPvwc/aLaOXP+8oNfHNfTfwh1H7f8OrBScvatJbN/wFuP8Ax0rU09y6q0O7qG4t4bu3kt7iJJYZFKvHIuVYHqCO9TUVsYHj/iLwh4o8Gu+peB9Ru208HdJphbzRH/uK2dy+33h71maL8eLmPEWuaSkoBwZrRtp/FG/xr3KuB8afCzSfFPmXltiw1Q5JnRcrKf8AbXv9Rz9ahp9C009GaGjfE3wlre1IdVjgmb/lld/um/8AHuD+BrrEdJEDowZSMgg5Br5H8SeEtZ8K3XkarZtGjHEc6/NFJ/ut/Q8+1VtL8Qaxoj7tM1O7tPVYpSFP/Aen6VPtLblezT2PsSivnPSvjd4mssLfRWeoJ3Lp5T/mvH6V2+l/HXQbkBdRsL2xf+8oEyfmMH9KpTiyXBo9Upa53TPHfhfV8Cy1yzdz0jeTy3/75bBroFYMoZSCD0IqrkWY6iiimAUUUUAFHWiigBmCnTlfT0pwIIyDS00qQcrwfT1oAdRSK2eOhHUUtABgUmKWigAwKie3hk+/DG31UGpaKAKT6Rpsn39PtW/3oVP9Kgfw7oZGX0fTz9bVD/StMsFGTTQMnc3XsPSlYLmSPCnh9jltC0z2H2SP/Cj/AIRHw3/0ANL/APAOP/CtmiiwXZjDwl4cHTQNL/8AAOP/AAp48L+H16aHpg+lpH/hWtRRYLszV8P6Mn3dJsV+lsg/pU6aZYR/6uytl/3YlH9Kt0UWC5GsMcf3I1X6Lin4paKYCYpcCiigAooooAKKKKACiiigAooooAKKKKACvOvjXbib4eyyY/1N1C//AI9t/wDZq9E7VxfxZj8z4aax/srG35SLUy2HHdHy9RRSdK5jrFooooAKKKKACiiigAopKWgQV3fwfsvtfxHsnK5W2ilmP/fO0fq1cJXsHwDsC+q6xqJHEUMcAPuxLH/0EVUPiJm/dPdqKKK6TmCiiigAooooAKKKazBVLMQABkk9qAKGtavaaDo91qd8+y3t0Lt6n0A9ycAfWvkrXNYudf1u71W7P765kLkZ4UfwqPYDA/Cu0+Knj3/hKNTGm6fKTpNo/DA8TydN/wDujov4mvO6wnK+hvTjZXCiiiszUKu6PpV1rmr2umWSlri5kCLxwvqx9gMn8KpV9BfB/wADnRtOOvahFi/vExCjDmGI8/gzdfpj3qoxuyJysj0PRNIttC0Wz0u0GILaIRr6n1J9ycn8a0aKK6EcwUUUUwCmYKfd5X0p9FACAhhkUtNK85Xg/wA6FbPB4PpQA6iiigAooooAKKKRmCj+lAAzBRk0gUk7m69h6UKpzubr/KnUAFFFFABRRRQAUUUUAFFFFABRRRQAUUUUAFFFFABRRRQAUUUUAFFFFABRRRQAUUUUAHWmYKdOV9PSn0UAICCMg8UtJwuTwM03zEzjdQA+igEHoaYQXODwv86ADl+nC+vrTwMDAoooAKKKKACvmf4yx7PiRdN/ft4W/wDHcf0r6Yr52+OcHleObeX/AJ62KH8ncVnU2NKfxHmVe3fAPUs2+s6WzfddLhB9Rtb/ANBWvEa774O6n/Z/xCtoi21L2GS3P1xuH6r+tZwdpGs1eJ9MUUUV0HMFFFFAFe8srbULV7W8t4riCQYeOVQysPcGvJfFXwPtbgyXXhu4FrJ1+yTktGf91uq/jn8K9ioqXFPcak1sfHmteHtW8O3X2fVrCa1cnClx8j/7rDg/hWZX2dd2VrqFs9teW8VxA4w0cqBlP4GvNPEXwR0TUd82jTyaZMefL/1kJ/A8r+B/Cs3T7GyqrqfPhG7rz9av2Gt6tpTBtP1O8tfaGdlH5ZxW/r3wz8U+H97zac11br/y3s/3q49SPvD8RXI9yO46j0rOzRaaZ3Wn/F7xjYhVfUIrtB2uYFP6rg11Fh8fLtcDUdChk/2racp+jA/zrx2inzyQuSLPoiy+OPhi4Ci6h1C0bvvhDgfipP8AKuksviR4PvyBDr9mrHtMxiP/AI+BXynRVe0ZPskfZlrqNlejNpeW849YpVb+RqzxXxUh8ttyfIfVeDWraeJ9fsABaa3qMIHZbl8flmqVUn2XmfYGRS18s2vxT8aWmAutvKPSaKN//Za2rX43+K4MCaLTrj/fhZT/AOOtT9ohezZ9FMu769jSBiDhuvY+teGW/wAfdQXH2rQbZ/eK4Zf5qa1Ifj7p7jFxoF2g/wCmc6P/ADxT50LkkexUV5jb/HHw1LgPZapGfeFWH5hqvx/GLwg/El1dQ5/v2r/0Bp8yFys76kLBR/SuOT4reCXGRrsQPo8Ui/zWrMPxD8HynI8Rafk/3pdv86d0LlZ1Cqc7m6/yp1YUfjTwxJ9zxDpZ/wC3tP8AGp18T6A/3db00/S7jP8AWi4WZrUVnDXtHb7uq2J+lwn+NP8A7a0s9NSsz/23X/Gi4rMvUVR/tnTP+gjaf9/1/wAaQ65pI66nZj63Cf40XCxforMbxFoi/e1jTx9blP8AGoX8W+HIx8+v6WPrdx/40XCzNmiuck8e+EovveItN/C5U/yqpJ8TvBcf3vEFof8Ac3N/IUXQ7M62iuGm+L3gqLpqryf7ltIf/Zaz5fjf4SjzsXUZf9y2x/6ERS5l3DlfY9KoryO4+Pejqf8AR9H1CT/faNP6msu5+P0xH+i+HkX3lu8/yWlzofJI9wpK+ebn46eJpRiCy02D32O5/Vqxbr4teNboEf2uIQe0NvGv64Jpe0RSpyPqCq91qFnZLuu7uCBfWWQKP1r5LvPFviO/BF1rupSg/wAJuWA/IEVSsdN1HXLzyLG0uL64PVY0LkfU9vxpe07Ifsu7Pp6++JXg/TyVl161dh/DATKf/HQawG+M2kXV0tnoularql2/CRxQhd35nOPfFcj4a+Bt9clJ/EV2LSLr9mtiGkP1b7q/hmvYdB8M6P4atfs+lWMVup+8wGXf/eY8mqTkyXyoXRbjWruI3GrWVvYbh8ltHMZXX/ebAXPsM/WteiirIENch8Uufhrrn/XAf+hrXXmuP+Kh2/DTWz/0yUfm60pbDjuj5bPU0lKeppK5TrE+lLRShC3QUCEop2wdC6g+lBRlGSOKAG0lLRQMKKKKACvon4H6d9l8DyXjLhry6dwfVVwg/VWr52JwCfSvrnwdpf8AY3g7SdPIw0Nqm8f7RGW/UmtKa1Mqr0N2iiitzAKKKKACiiigBK8N+K/xKFz5/hvRJsw8pe3KH7/rGp9P7x/D1qx8UPijjzvD/h+f5uUu7yM9PVEPr6n8B7eKdPpWM59EbU4dWFFFFZGwUUV6L8N/hrN4pnTU9TR4tGjbgdDckfwr/s+rfgPZpXE5W3Lvwo+Hba3cx69qsP8AxLIWzBE4/wCPhx3/ANwH8z9DX0JUUEMVtBHBDGscUahURBgKB0AFS10RjZHLKV2FFFFUIKKKKACiiigApGUN9expaKAGhiDhvwPrTqDgjnpTdw6AE/SgB1FN3jvkfWlJwMgZoAGbaPU9hSKvO5uT/KhVwcnlqdQAUUUUAFFFFABRRRQAUUUUAFFFFABRRRQAUUUUAFFFFABRRRQAUUUUAFFFFABRRRQAUUUUAFFFNLYIAGTQBFP1Wjau0+uelSvGHxnPFN8oYxlqAGwnLEegqampGqZxmnUAFFFFABRRRQAV4V8fbYrqui3WOHgliz9GU/8As1e615J8erQyeHdLvAP9TdlCf95D/wDEionsVD4jwSruj6g2k63Y6inW1uI5vwVgT+mapUdawR0s+0opFliSRG3IwDKR3BqSuS+Gurf2x4A0mdmDSxxfZ5P96P5f5AH8a62ulao5GrMKKKKYBRRRQAUUUUAFc/rngrw74iy2paVBLKf+Wyrsk/76XBroKKTC7R4zrPwFt33SaJq8kJ7Q3ab1/wC+lwR+RrgNX+Fvi7SNzPpTXcQP+ss280f98/e/SvqWkqXTTLVRo+LZopLeUxTxvFIOqSKVI/A0yvsm/wBJ0/VIvKv7G3uk/uzxK/8AOuO1P4O+D9QJaKylsXP8VpMVH/fJyP0qHTZoqq6nzPRXtOo/AJhltM13Pol1B/7Mp/pXKX/wb8Y2RbyrS2vFHe3uBk/g22o5GiueLOBorYvfCfiLTQTeaHqESj+I27Mv5jIrHYeW21/lb0bg0rMq6Cg9KO2aOtIC7KWAwvoTTYtzgBsjv1qE3DkYIU/hQLhx0C/lTAjb77depoz70nU5ooAKTav90flS0UAN2L/cX8qXYn9xfypaKAE2J/cX8qTYv9xfyp1FACbV/ur+VGB6ClooAKXPvSc0mQDjIz9aAFoq/ZaHq+pkCx0u9uc/88rdmH54rp9P+EvjLUME6Ytqh/iuplT9Bk/pRZsXMkcTRXsem/AO6YhtU1yKMd0tYSxP/Amx/Kuz0v4OeEdOw01pNfyDvdSkj/vlcCqVNkuokfN1tbXF7OILWCW4mPSOJC7fkK7bRfhF4s1ba8tpHp0J/ju2w3/fAyfzxX0fY6ZYaZD5NhZ29rH/AHIYwg/SrdWqfch1X0PLtC+B+g2JWXVrifU5Rzs/1UX/AHyDk/ia9G0/TLHSrUW1hZw2sI6RwoFH6VcorRJIzcm9wooopiCiiigBK4b4vy+X8NdTH/PRoU/8iLXdV5r8cJvK8ArHn/XXsS/llv8A2WplsOO6PnOiiiuY6wpW/wBSv+8f6UlOBG3awyM54OKYiXaoUgAHGf8A6350wHiRRjCjA/OgOoGAG/76/wDrU3KhSFUjPXJzQA2iiikMKKKKANrwjpX9t+LtJ07buSa5XzB/sL8zfoDX12OlfP8A8C9H+1eJb3VXXKWUHlof9uT/AOxU/nX0DW9NaHPUeoUUUVoZhRRUNzcw2dtJcXEqRQxKWeR22qoHcmgCUkKCScAV4b8S/it9p87Q/DlxiHlLm+jP3/VIz6erfl61lfEX4qTeIDLpWiO8Olfdkm+69z/8Snt1Pf0rzGsZz6I2hT6sPaiiisjUKPermmaXfazfx2OnWslzcyfdjjGT9T6D3Ne8+BPhHZ6C0Wo635d7qQ+ZI8ZigPt/eb3P4etVGLZMpJHI/Dz4SzaqYdW8RRPDYcPFaN8rz+7f3V9up9h197hijt4UiijWONFCqijAUDoAKkoreMUjnlJsKKKKoQUUUUAFFFFABRRRQAUUUUANf7hpHJ6UoO8EY49aCpPUj8qAGrzxzgc05PuCgKR0I/KlAwAKAFooooAKKKKACiiigAooooAKKKKACiiigAooooAKKKKACiiigAooooAKKKKACiiigAooooAKKKaWJO1evc+lAAzHO1ev8qVVCj37mhVCjApaACiiigBCMjg4NIG52twf506kIDDBoAWimZKfe5X1p9ABRRRQAVwnxfsftnw41BgMtbtHOP8AgLjP6E13dZfiLT/7V8N6lYYybi2kjA9ypx+tJ6oa0Z8e0UDOOQQe9Fcp1Ht/wF1fdbaroztyjrdRD2b5W/UL+dez18sfDHWv7E8fabK7bYbhjayc8Yfgf+Pba+pq3pu6OeorMWiiitCAooooAKKKKACiiigAooooAKKKKACiiigBMVVu9OsLxf8ATLO3nX0liV/5irRIUZNIASdzfgPSgDl7r4deEb5i8/h6xBP/ADzj8v8A9BxWRdfBjwdcE+XaXNv/ANcrlv8A2bNeg0VPKh8zPKLj4DaC/wDx76nqUX+8Uf8A9lrOl+AEXWHxFKPaS0B/kwr2iijkQ+eR4PN8A9SXJh161f2a3Zf/AGY1VPwI18jMeq6Y3+95g/pX0FTWXJyDg0uRD9pI+em+BXicdL3Sm/7aSD/2SmH4G+Ku1zpf/f5//iK+iA2TgjB9KdR7NB7SR87D4GeKT1utLH/bZ/8A4ipV+BHiQ/e1HSl+jSH/ANlr6Eoo9mg9pI8Cj+AmtH/WazYL/uxu3+FXYfgBOf8AX+IkH/XO0J/m9e4UUciD2kjx+H4Baap/0jXL2T/rnEifzzWrb/A/wpFgyyajP6h7gKP/AB0CvS6KfIhc8jjLX4V+C7XBXQ4ZCO8zvJ/6Ea37Lw7omngfY9JsYCOhit1U/nitSinZCuxMAdqUUUUxBRRRQAUUUUAFFFFABRRRQAUUUUAFeP8Ax9uimj6NaZ/1ly8mP91Mf+zV7BXgPx5vPM8SaXZhsiG0aQj0Lvj/ANkqJvQuHxHk9FFFc50hRRRQAUUUUAFFFJ0oAWiitLw/o8mv+IbDSos5uplRiB91erH8FzTS1E3ofQ/wh0T+yPAdrNIm2e/Y3T5HODwn/joH513tRQQx21vHBEoSONQiKOwAwBUtdKVkcrd3cKKK5Txl470rwbZ7rt/OvJFJhtIz87+5/ur7n8M0N2Elc2db1zT/AA/pkuoancpBbx92PLHsoHcn0r5w8d/EXUPGNwYE3Wuko2Y7YHl/RpPU+3QfrWL4n8V6r4t1I3mpTZC58qBOI4V9FH9eprErGU77G8KdtWFFFdX4W+HniDxWyyWtt9nsz1u7gFU/4D3b8PzqLNmjaRyleheD/hJrPiLy7rUA+m6ced0i/vZB/soen1b8jXrfhP4W6D4XKXLR/b9QXn7TcKPlP+wvRfryfeu56VrGn3MZVOxi+HfC2keFrH7LpVosQP8ArJD80kh9Wbqa2qKK0SMtwooopgFFFFABRRRQAUUUUAFFFBOBk0AFM/1n+7/Ojl+vC+nrT6ACiiigApp3A5HI9KdRQAgIYZFLTSvOV4P86FbPB4PpQA6iiigAooooAKKKKACiiigAooooAKKKKACiiigAooooAKKKKACiiigAooooAKKKaSWO1fxPpQAEknav4n0pQAowKAAowKWgAooooAKKKKACiiigApmCnK8j0p9FACBgwyKWmlcnIOGoVsnBGD6UAOpD0paKAPkLxbp39keL9XsAMLFdybP90ncv6EVjV6X8b9L+x+Nor5R8l9bKxP8Atp8p/TbXmlc0lZnVF3QqsysGRirKcqw7Hsa+uvCWtr4i8K6dqikbp4QZB6OOGH/fQNfIle2fAjxBmO/8PTPyp+1W4PocBx+e0/iaqm7Miorq57VRRRW5gFFFFABRRRQAUUUUAFFFFABRRRQAUjMFGTQzBR/IUiqc7m6/yoAApJ3N17D0p1FFABRRRQAUUUUAFFFFACFQw5pu4rw3TsafR1oAKKZgp05X09KcCCMg0ALRRRQAUUUUAFFFFABRRRQAUUUUAFFFFABRRRQAUUUUAFFFFABXy58V9QF/8R9U2nKW+y3HttUZ/Umvp2eZYopHZgqIpZm9AK+OdTvW1LVby/fJa5neY5/2mJ/rWVR6GtJalWiiisTcKKKKACiiigAooooAT6V7D8CfD/n6hfeIJk+SBfs0GR/G3Ln8Bgf8CNeQxxvLIkcSF5HYKijqzHgCvrTwh4dTwz4VsNMTAlijzMw/ikblj78mtKauzKo7Kxv0ZAHNZes6/pvh7T3vdVuo7aFf7x5c+ijqx9hXgPjj4r6l4m8yx04PYaUcgqGxLMP9sjoP9kfiTWspJGUYuR3njz4v2ukeZpvh5o7u/GVe5+9FCfb++36Dv6V4PeXt1qN5LeXtxJcXMrbpJZGyzGoUR5HWONGZ24VEGSfoK77w58IPEuuFJbuIaXanq9yP3hHtH1/76xWLbkbJRgcB0FdX4a+HXiPxQUktbM29o3/L1cgomP8AZ7t+A/GvcvDXwq8NeHSkxtv7QvF58+7AbB/2V+6P5+9dwABVqn3JdXseeeF/hB4f0EpcXy/2perzvnUeWp/2U6fnmvQlUKAAMAdAKdRWiSWxk23uFFFFMQUUUUAFFFFABRRRQAUUUUAFFFBIAyelAASAMmmAFzk/d7D1oALnLdOwp9ABRRRQAUUUUAFFFFABSMobr+dLRQAwMVOG/A0+gjIwaZynTlf1FAD6KQEEZB4paACiiigAopqtk4PDelOoAKKKKACiiigAooooAKKKKACiiigAooooAKKKYSXOB93uaAAkscKcDuacAAMAcUoAAwOlFABRRRQAUUUUAFFFFABRRRQAUUUUAFIVDDmlooAZuKnDdOxp9HWmYKdOV9PSgDzD45aQbzwlb6ki5ewuBuPpG/yn/wAe218919heINLj17w7f6Y+Ct1A0YJ7Ejg/gcV8gSxSQyvFKu2WNijqezA4I/Osai1ub0npYZWt4X12Tw34ksdWjyRbyZkUfxRnhx/3yTWTRWadmaNXR9oW88V1bRXEDh4pUDo46MpGQamryv4KeKP7S8PyaFcPm507mLPVoSeP++Tx9CteqV0p3RytWdgooopiCiiigAooooAKKKaxyQM8E80AOpGbaPU9hUYBD5EeB0471ICGGRQAirzublv5U6iigAooooAKKKKACiiigAooooAKKKKACmlcHK8H09adRQAitnjoR1FLSMob2PY0gYg4br2PrQA6iiigAooooAKKKKACiiigAooooAKKKKACiiigAphJY7V/E0Elzhenc08AAYHSgDkfiVqo0b4f6tKjBZJYvs8f+9Idv8iT+FfK/Svbfj1rGIdK0VG+8zXUo9h8qfqW/KvEqwqPU3prQKKKKzNQooooAKKKKACiilRGkdURSzsQqqOpPYUAejfBvwz/AGz4s/tOdM2mmASc9GmP3B+HLfgK9o8b+LU8H6GbwWsl1cSt5VvCinBfGcsQOAKTwD4YXwp4UtbBgPtLDzblh3kbr+XA/CunrojGyOaUrs+YLjRvHfxC1P7dcafeTluEeZfJhjX0XdgAfTJ+tdhoXwJfKSeINUwvUw2Q/m7f0Fe34o7UKC6g6j6GHoPhDQvDUYXStNhhcjBlI3SN9XPNbtMwU6cr6U4EMMjpVEC0UUUwCiiigAooooAKKKKACiiigAooooAKMj1pjMDgA9Tg4NJhg2QgAFADyQoyaaAWO5vwFOBDDp+dLQAUUUUAFFFFABRRRQAUUUUAFFFFABRRRQA0qQcr17j1pVYN7HuKWkZc+x9aAFopoYg4bg+vrTqAEZQw5pu4rw34Gn0daACimYKdOV9PSnAgjIORQAtFFFABRRRQAUUUUAFFFFABRRTP9Z/u/wA6ADJfgcL6+tPAwMCiigAooooAKKKKACiiigAooooAKKKKACiiigAooooAKKKKAGFecrwe49a+Zfizof8AY3jq6lRNsF+PtSegY8OP++hn/gVfTteb/Gbw4dY8If2hCm650xjMMdTGeHH8m/4DUTV0XB2Z840Un1pa5zoNnwr4hn8L+JLPVockQtiWMfxxnhl/L9QK+tbK8g1CxgvLWQSQToskbjoykZBr4xr2v4JeMcq/ha9l5G6WyLHt1eP/ANmH4+la05W0M6kb6ntdFFFbGAUUUUAFN3r64+tKSAOSAKYrAjAILDpQAMQc55UcYHc0hUcAqFz0K0gwFIOQD19jTtwJB3BiOgWgBqnnLMcjt61IgOMnjJzilUYXB696WgAooooAKKKKACiiigAooooAKKKKACiiigAooooAKQgEYI4paKAGcp15X+VPByMiimFSpyv4igB9FIrBun5UtABRRRQAUUUUAFFFFABRRRQAUzJc4H3e59aOX6cL/OngYGBQAgAAxilornfG+vDw54P1HUg22ZIikHPWRvlX9Tn8KQLVnzr8R9b/ALe8d6nco+6GJ/s0JB42pxn8W3H8a5Wj6nJ9T3ormerOtKyCiiikMKKKKACiiigAr034NeEjrHiA61dR5s9ObMeRw8/b/vkfN9dteeabp9zq2p22n2cfmXNxII419z6+w6/hX1p4Y0C18MeHrXSrXlYV+d8YMjnlmP1NaQjd3M6krKxsUUUVuc4UUUUAFNK85Xg/zp1FADVbPB4PpTqRlDfXsaQMQcN+B9aAHUUUUAFFFFABRRRQAUUUhIUcnFACeYOc8e/rTSwbPdQPzoV1ztz9Kbwud3/Av8aAHEdAyrg8cdqaB83Jb5fTnNOyMj5i2OgxT1BA56nk0AIoPJIxk5xTqKKACiiigAooooAKKKKACiiigAooooAKKKKACiiigBCARgjIpuSnXlfX0p9FABRRRQAU0qQcrwfT1p1FACKwb2PcUtIyhvY9jSBiDhuD2PrQA6iiigAooooAKKCcDJpmC/J4X09aAD/Wf7v86fRRQAUUUUAFFFFABRRRQAUUUUAFFFFABRRRQAUUUUAFFFFABRRRQAVHNEk8LwyoHjdSrKehB6ipKKAPkbxj4dk8LeKL3SmB8pG3wMf4om5U/wBPqDWD0r6K+MnhI614eGsWke6904FmCjl4f4h+H3vz9a+dvpXNNWZ0wldBU1nd3FheQ3drK0VxA4kjkXqrDoag+lLSKPrLwV4rt/F/h2HUItqTj93cwg/6uQdR9D1Hsa6OvlTwD4xm8HeIEuSWawnxHdxL3XswH95ev5jvX1Jb3EN9ZxXNtKksMqh43U5DKeQfpW8JXRzzjZlgEEZHSio+TyhxnqPSgFexZfQnoasgBk4OAWbnJ7CkYZDZxuUZBFH3QA2RjowpcbgQMnPVjxxQAYJ6oCcde1PUYUClooAKKKKACiiigAooooAKKKKACiiigAooooAKKKKACiiigAooooAKKKKAGsueRwfWgNzhuD/OnUhAYYNAC0UzJT73I9afQAUUUUAFFFHSgApn+s/3f50f6z/d/nT6ACiiigArwv47eIfOvbHw/C/ywj7TcAf3jwg/LcfxFe1X17Bpun3F7dPsggjaSRj2UDJr5D13V59e1291W4J8y6lMmM/dH8K/gMD8KzqOysaU1d3M+iiisDoCiiigAooooAKKK7P4b+Cn8Ya+BOhGmWhD3T/3vSMe57+2famldibsrnonwX8F/YrM+Jr+Ii4uV22isPuRd39i38vrXr9RxosSLGihUUYVVGAAO1ProSsrHK3d3FopD09aRSWGSpU+hqhDqKKjk8wxt5RUPjgsMigCSiuS1PxjdeHiz63oV4loP+X2x/0iID1YcMv4rj3q3pHjnwzrpVdP1m1kkbpGz7HP/AWwaV0OzOioIBGDRkUUxDOU9Sv6inggjI6UU0qQcr+I9aAHUUisG+vcUtABSAgjIOaGG5SKZy3ThuhFAElRjk57k4GewpPlGeCMcbqDlR83K9Qw7UAKwLZVsE4yDQNxCkqCccE0D5h8uef4jUgGBigBFG1QKWiigAooooAKKKKACiiigAooooAKKKKACiiigAooooAKKKKACiiigAooooAKKKKACkIBGCOKWigBqgg4zkfrTqRs5ABxmmHAPOT9TQBJQSAMnpUeSORnHvTyoJGe1ADQC5yfu9hT6KKACiiigAooooAKKKKACiiigAooooAKKKKACiiigAooooAKKKKACiiigAooooAayh1KsAQRgg96+XviV4Obwl4lcQIRpt3mW1PZf7yf8B/kRX1HXPeMfC9t4u8PT6bPhJD89vNjJikHRvp2PsTUTjdFQlZnyVRVrUdPutJ1G4sL2IxXNu5SRD2P+HcGmS2r2zxfaFKq/PBycd6wOncgr1/4ReM5NLiGj6rcBNNlfFpI5/1bk/dyf4Senv8AWvN7vS4IY5Z/NKpjKLjv6UqxG/0WOKHBeJvmTPXr/jTi2mTJJo+uR1LKST3B70oIHPVG/SvLfhd44uLq1i0XXn23UQ2Ws8jczDsh/wBodvX69fUlj+UZJ9xXQnc52rOwuzjAYhfSn0UUxBRRRQAUUUUAFFFFABRRRQAUUUUAFFFFABRRRQAUUUUAFFFFABRRRQAUUUUAFFFFABTQpU/L930p1IxPAHc0ALRUbYB5yfqaMkDIzj3oAkJwMmmY3nJ+72HrTioOM9qWgAooooAKKKqalqFtpWm3N/eSCO3t4zJIx7ADNAHlvxw8Ti00qDw7bP8Avrz97cY7RKeB/wACYf8AjprwatTxHrlx4k8QXmrXOQ9w+VT/AJ5oOFX8BWXXNJ3Z0wVkFFFFSWFFFFABRRUkEEtzcRwQRvLNIwRI0GSzHoAKBFzQ9FvfEOsW+l6fHvuJ2wM9FHdm9hX1Z4X8OWfhXQbfS7IZWMZkkI5lc/eY/X/AVgfDbwHH4O0ky3IV9WulBuHHPljqI1PoO/qfwrua3hGxhOd3YKKKK0MwooooAKKKKAEIBHNef+KvhJ4f8Rb7i2jGm3x582BBsY/7SdD9Rg+9egUuaTV9xptbHzfqFt8QvhnJuS+uTp6n5Zo2M1ufqrZ2fjj610GhfHiZSsevaWrr3nszgj3KMf5GvbXRZEZHUMrDBVhkEV5h4u+DGl6t5l3obJpt2eTFj9w5+g+5+HHtUOLWxakn8R2WgeNfD/iZR/ZmpRSS45gc7JR/wE8/lW/mvj/W9A1fwzqAttUtJbWcHMb/AMLe6MOv4V1Xhr4u+I9CKQ3cv9qWY4Mdy37xR/sydf8AvrNJVO43T7H0t36Utcp4c8faN4liiWGX7NdyruW2uCFc/Ts34V02MJuDnbjNaJ3MmrDic55wB1NIB82QWDf7XegAkEH7wO6lJJIJG0DnmmAgP8Q+6eo9Kds/ukgHsKaseRk5GeoqSgAAwMCiiigAooooAKKKKACiiigAooooAKKKKACiiigAooooAKKKKACiiigAooooAKKKKACiiigAoopn+s/3f50AK3VT2phxnINS0UAR8bdo5JqSikVg3T8qAFooooAKKKKACiiigAooooAKKKKACiiigAooooAKKKKACiiigAooooAKKKKACiiigAoopCwH+FAHmXxZ8A/8JDYf2zpsOdUtUw6KObiMdvdh2/L0rw22st0gTUA4Z12xFnz/AJNfXjk8EocA5rxv4m/D2D7TJ4gsDOY3bdcQoeI2P/LRR2Hr6dfWspx6o1hPozylJ5LSdrO+PmQOMBj6djQLR9LL3SzqUGNqn+Men1p17PC9vLb3RJniPyMBy3HB/wAaxazNTW1N/MSG9guGAJ4XcQVYdx6Efoa9r+GXxPTW0i0TW5gupqNsM7cC5Hof9v8AnXz9SqxVgykgg5BBwQaalZilG6PtWivG/hz8W1uhDo3iWcLPwkF85wJPRZPRv9rv356+yVsmnsc7TW4UUUVQgooooAKKKKACiiigAooooAKKKKACiiigAooooAKKKKACiiigAooooAKKKKACmt/CewNJ/rP93+dPoAjYjOQaONhUck1JRQAUUgYEkdD6UtABRRRQAV4f8bfGIkkTwvZSfKhEt6ynv1RP/Zj/AMBr0nxz4tg8IeG5r5tr3T/u7WIn78h6fgOpr5Vubma8uprq5laWeZzJJI3VmJyTWVSXQ0pxvqRUUUVidAUUUUAFFFABJAGST2FACgFiAASTwAO9fQXws+G/9gxJresQj+1JV/cwsP8Aj2U/+znv6dPWqvwv+GH9l+Vr2vQ/6djdbWrj/Uf7Tf7ft/D9enrtbQh1ZhUn0QUUUVqZBRRRQAUUUUAFFFFABRRRQAUUUUAUdU0jT9bsXstStIrq3fqki5/Eeh9xXhfjX4N3ukiS/wDD3mXtmPma2bmaMf7P98fr9a+gSwHX8qY5Yr9zvnrUyimVGTR8hWtm1vNG1+jKudseW+4306g/yNeheG/inqvhm5jstcMmo6Y3CTk5mjH1/jx78+/avQPGnw30nxUWvI822on+NchJD/tgd/8AaHP1rxDW7KXQrq40fWYZEmiUNHnksOxB7/XpWbTiapqW59N6ZqtlrOnx32m3kdxbtyjoc8+h7g+xq8SNysRznGDXyN4a8Uap4U1Nb3TJ9pOPMibmOUejD+vUV9J+DPHOmeMtOM9t+5vIgPtFqxy0fuD3X3q4zuZzg4nV0UUVZAUUUUAFFFFABRRRQAUUUUAFFFFABRRRQAUUUUAFFFFABRRRQAUUUUAFFFFABRRRQAUE4GTQSAMmmYLnJ+72HrQAcv14X09afRRQAUUUUAFNZcnI4b1p1FADQ3OG4P8AOnUhAYYNNyU4bketAD6KKKACiiigAooooAKKKKACiiigAooooAKKKKACiiigAooooAKKKKACiims4UHkZ9M0AKWAOM8+g5phbO9h1AA+lKAQdoOOMk+tJuIDdCQetAC4CldpJz75zUfl7gwIUqcjBGakCt2Cr7inAYGBQB88fFL4cS6Dcy65piNJpcrZlQcm2Y/+yH9OnpXmNfaMsUc8TxSorxupVkYZDA9QR6V89/Er4YS+HZJNX0aNpNIY7pIhy1r/AIp79u/rWM4dUbQn0Z5lSdKWisjYOCK9N8A/Fm78PiPTdaMl3pgwqS/eltx/7Mvt1Hb0rzKjNNO2xLSe59l6fqNnqtlFe2NzHcW0o3JJG2Qat18keF/GOseEb3z9NuP3THMttJzHL9R2PuOa+g/B3xJ0XxciwK/2PUsfNaTNyf8AcP8AEP19q3jNMwlBo7SiiirICiiigAooooAKKKKACiiigAooooAKKKKACiiigAooooAKKKCcDJoAKZ/rP93+dGN/J+72HrT6ACiiigAooooARlDdfzpu4rw34Gn0EZGDQAVXvLu3sLOa7upVit4ULySMcBVHUmpeU919PSvn/wCLfxAGtXT+H9Lmzp0D/wCkSqeJ5B/CP9lT+Z+lTKVkVGN2cn478Xz+MfEL3h3JZxZjtIT/AAp6n/abqfwHauYoornbudKVlYKKKKQwooq3pum3ur6hFY6fbPcXUpwkaDn6+w9zRuLYrRxvNKkUSM8jsFVEGSxPQAdzXvvw0+Fi6L5Wta7Er6lw0FueVt/c+r/y+tanw++GVn4UjS/v9l1rDD/WYykHsnv6t1+gr0OtoQtqzGdS+iCiiitTIKKKKACiiigAooooAKKKKACiiigApCwHHf0FIXVepGaaM8AHBIyTQAbssSAcheMij5QAVPzE+vWlJIDDOSBkGjDf7I98UAIFO9ipHXuKwPFfg7TPF2ltaX6YmXJhuVA3xN6j29R0P610QAAwKWk1cE7HyF4m8M6j4U1h9O1GPDAbopV+5Mn95f8ADtVPSdWvtD1ODUdOnaC5hOVYdD6gjuD3FfUvjPwjZ+MNBksbgKk65e2nxzFJ6/Q9CPSvlW/sLnS9QuLG8iMVzbyGORD2YVjKPKzohJSVmfUfgjxla+MdFF3ABHdRYS6ts8xt6j/ZPY/4V1QYMMivkfwh4ouvCPiGDU7bc0Y+S4hB/wBbGeo+vce4r6usby31Owt7+0kDwzxrJG46MpGRWkJXMpxsy3RTVbJwRhvSnVZAUUUUAFFFFABRRRQAUUUUAFFFFABRRRQAUUUUAFFFFABRRRQAUUUUAFBIAyelISFGTTQCx3N+AoAAC5y3TsKfRRQAUUUUAFFFFABRRRQAUUUUAMwU+7yPSnAhhkUtNK85Xg/zoAdRTVbPB4PpTqACiiigAooqC3uorozCM5MMhif2Yf8A66AJ6KKKACiiigAooooAKKKKACiiigAqMjLfN3+6fSpKjPzcnOM4AHegA3E4Q8Hv9KTIKsAABkCng5YZUgjpTP3ZBGTyc4oAVSGOCTuHcdxQvzHAGADznqTShd3ONuPu+1KoOSWxn0FADqKKKACmOiyIVdQysMEEZBFPooA8K+Inwje1Mur+GoC8HLTWCDLJ6tH6j/Z7dvSvHulfa1eaePfhRZeI/N1LSfLs9VPzOMYiuD/tf3W/2h+NZSp9UawqdGfOlFXNU0q/0W/ksdStZLa5j+9HIO3qPUe4qnWWxsncT605WZGVlJVlOQQcEGkpOlAHqHhD4y6ppGy011X1KzHAmz+/QfXo/wCPPvXt+g+JtI8TWn2nSb2O4UY3KDh09mU8ivkGrFlfXem3aXdjcy21wn3ZYnKsPxq4za3IlTT2Ps6ivCPC/wAcbu22W3iS1+0x9PtVuoWQf7ydD+GPpXsOieJdH8R2v2jSr+G5UfeVThk/3lPI/GtVJMxcWjWoooqiQooooAKKKKACiiigAooooAKKKKACiikJAGSeKAFJAGT0pgBc5P3ewoALHLDA7Cn0AFFFFABRRRQAUUUUAFHSivLvif8AEtPD8UmjaPKG1Z1xLKvItVP/ALP6Dt1PbKbsNK+hR+LPxGFhFL4c0af/AEtxtu50P+pU/wACn+8e/oPfp4PjHT8qczM7l3YszHczE5JPqaSueUrnTGPKgoooqSgopyI8kioiM7sdqqoyWPoBXrPgn4M3N8Y7/wATb7a26rZKcSP/AL5/hHsOfpVJN7EuSW5w/hLwTq/jG98qwi2WyNia7kH7uP2/2m/2R+lfR3hHwXpXg6w8mwj33DgefdSDMkpH8h7DituxsLXTLOK0sreO3t4l2pHGu1VFWq2jBIwlNsKKKKsgKKKKACiiigAooooAKKKKACiiigBjgbstyvT6UhJHyE8nofalY5zn7o4wO9GeQGXHpQA3IAdQMAChcE7DnjoaX5CW6gng8UoXd1GAOg/rQAgAJK4wB19TUlNCnOSfbinUAFFFFABXgvx20SO21jT9ZiABu0aGbHdkwVP/AHycf8Br3qvGfj9cKLLQ7bI3mWWXHsFA/wDZqiexcPiPD694+BfiFrrSrzQZny1m3nQZP/LNjyPwb/0KvB67z4O3b2vxHsowcLcwywv7/LuH6qKyg7SNpq8T6ZKhhzTdxXhunrT6OtdBzBRTMFOnK+npTgQRkHigBaKKKACiiigAooooAKKKKACiiigAooooAKKKKACiiigApCQoyaGYKMmkCknc3XsPSgAAJO5vwHpTqKKACiiigAooooAKKKKACiiigAooooAKKKKAEZQ3X86aGKnDfgafQRkYNABRTOU6cr+opwIIyDxQAVxmgamLb4h+JtBmbBkaK/twf4laNVfH0ZR+ddpXkPxZW88OeItD8Z6evzwN9mmHZhyQrezAuv5VL01HFX0PXqKy9B12y8R6Nb6nYSb4Zlzjujd1PoQa1KdxBRRRTAKKKKACiiigAooooAKjx/DnDA5Ge9ODFm46DqaUgEYIBoAaSQdzYz0AFOUbVAoCqvQAUtABSUteE/Fzx9q0OuT+HNPmks7aBF8+SM7XmLKGxu7Lgjp15qZOyHFXdj03xB8QvDXhpmivtSR7letvAPMk/EDp+OK831j49TsWTRdHRF5xLePuP/fC/wDxVeNUVk6jZsqaR6Tofxh8QJ4ntbnWb0S6aW2TwRxKqqp/iGOcr16+tfRMciTRJLGweNwGVlOQQehFfFtfSnwcutUufAcA1BD5EcjJZyE/M8QP8gcgewqqcnsTUilqj0KiiitTIxPEXhbSPFVj9l1W0WUDlJF+WSM+qt2/lXgvjD4S614cMl1YB9T05ed8a/vYx/tIOv1X8hX0rRiplFMqM2j4por6f8V/C/w/4oL3Bh+w37c/abYAbj/tr0b+fvXivib4W+JPDe+X7N9vshz9otAWwP8AaT7y/qPesXBo2jNM4mlooqCwqa1u7ixuUubS4lt505WWJyrL+IqGimB6h4c+Nmt6aEg1mBNTgHHmDEcw/H7rfiB9a9a8PfEbwz4k2x2uoLDct/y7XP7uT8M8N+BNfKtHWqU2iHTTPtbNFfKOg/EPxP4d2JZ6nJLbr/y73P71MegzyPwIr07Q/jvYzBY9c02W1fvNbHzE/wC+T8w/WtVNMydNo9gorG0bxVoXiBAdL1W2uTj/AFavhx9VPI/KtmquRYKKKKYBRRRQAUUUhIUZNAASFGTSAFjub8B6UAEnc3XsPSnUAFFFFABRRRQAUUUUAFFMd1jRndgqqMkk4AFeJfEP4vGYS6R4YnITlZtQQ9fUR/8AxX5etS5JDjFvY2viV8U49EWXRdClWTU/uzXA5W29h6v/AC7+leAySPLI8kjs8jsWZ2OSxPUk00nJ/GisJSudMYqIUUV1/hz4aeJfEhSSGyNpaN/y83eUXHsv3j+A/GklcbaW5yFdd4U+HOveLGSWCD7LYnrd3AIUj/ZHVvw4969k8L/CDQNBKXF6p1S8XkPcKPLU/wCynT8816EqhQABgDoBWkafcylU7HH+Efh5ong9Vlgh+1X2MNeTAFx67R0UfT8Sa7EYxx0paYVK8r+VapWMW7j6KRWDDilpgFFFFABRRRQAUhOBS1yHxLutVs/AepS6SmZtmJXB+aOI/fZfcD+p7UnoCVzyzxj8W9ZHi2ceHr4RafbfuVBjV1mYH5nOR68DHYe9W9I+PN9EVTWNIhuF6GS1co3/AHy2QfzFeQUVhzu508kbH1NoHxN8LeIXWKDUBbXLdILseUx+hPB/A11+c18Vda9N+Fvj/VrDXrHQrqaS7067kEKJIdzQMehU/wB31H5Vcal9GZyp2V0fRNFFNLfNtHJ7+1amQ0jBKk4ycg0pzkFscdAO9PIyMGkCqvRQPwoARRheep5p1FFABRRRQAUUUUAGa+Yfiv4iTxB42nEDhrWxX7NGQeCQcuf++uP+A16n8VfiAnh3Tn0jTpgdXuUwzKebdD/Ef9o/w/nXzpWNSXQ2px6hXdfCC2a4+JNg4GVgimlb2+Qr/NhXC17Z8B9CZU1LXpVIV8WsBPcD5nP57R+BqIK8i5u0T2qiiiuk5gppU5yvB/nTqKAEVs8dD3FLSMob2I6GkDEHDdex9aAHUUUUAFFFFABRRRQAUUUUAFFFFABRRRQAUjMFH8hQzbR6nsKRV53N1/lQAKpzubr/ACp1FFABRRRQAUUUUAFFFFABRRRQAUUUUAFFFFABRRRQAUUUUAFNKkHK9e49adRQAisG9j3FZXiTQrfxJoF5pN1wlwmA2MlG6qw9wcGtRlzz0PrQG5w3B7H1pWBHzJ4Z8T6v8MfFF1YXkLPAsuy8tc/e9HT3xyPUfp9F6Nren+INMi1DTbhJ7eToR1B7gjsR6VxXxR+Hw8U2I1LTowNXtlwAOPtCf3D7j+E/h348L8PeJtZ8Iao1xp0zQyBts9vIp2SY/hdfX9RWd+V2ZrZTV1ufXdFcF4P+Kei+JxHbTuNP1I8eRM/yuf8AYbofpwfau8FaJ32Mmrbi0UUUwCiiigApmd5wPu9z60f6z/d/nT+lAABgYFFFFABRRRQAVxPjj4cab4yUXBc2mpIu1LlFzuHZXHcfqK7aik1cE7bHyzr/AMMfFOgMzPp7XluP+W9mPMGPdfvD8q5AgqxRhhh1B6ivtTFZOq+GNE1xSNT0q0uif4pIhu/766is3T7GqqvqfIFfUnwy1iy1XwJpiWrIJLSFbeeIHlHUY5+vX8axtT+CPhe83NZveWDnoIpd6j8Gz/OsWz+EfiXwxqP27wz4mhWXGCs8TIHH91gNwYfhRGLiwlJSR7LRXK6ZrHiiBRFrvh0Mw4NzptwsiN77GKsPwzXSwTrPHuVZF9nQqR+BrQyJaKKKYBRRRQByniL4deGvEpaS8sFium/5ebb93J+JHDfiDXlWvfA3WLMtLot5FqEXaKX91L/8Sf0r6AoqXBMpTaPjfVNG1PRZvJ1SwuLR/SaMqD9D0P4VQ6V9o3FtBdwtDcwxzRN95JFDKfwNcRrHwh8JasWeOyewlP8AHZvsH/fJyv6Vm6fY0VXufM1Feuat8BtSg3PpOrW9yuMiO5Qxt+YyP5VxWo/Dvxbpe4z6HcyIOr24Ew/8dyR+VQ4tFqaZzFFPlikt5DHMjxOP4ZFKn8jTKRQoJVg6khl6EcEV1Oj/ABI8WaKFW31eaaIf8srr98v/AI9yPwNcrRQm0Fkz2fSfj3IMJrGihvWWzlx/463/AMVXcaX8WPB+qbVOp/Y5D/BeIY//AB77v618wUVaqNEOmj7Otb61vohLaXMNxGf44nDj8xU9fF9tc3FnKJbWeW3kH8cLlD+YrqdO+J/jDTABHrMs6D+C6VZc/ief1qlU7kOk+h9TswUc0gUk7m69h6V4Lp3x41WJh/aWj2lz23QSNEfyO4V1Vh8dPDlwALy01C0b18tZF/NTn9KrnRDhI9Sork7H4l+D78qItetUY9pyYj/48BXRWuoWV8u60u4LhfWKQOP0qroVmi1RRRTEFFFFABWfrGtafoGnSX+p3KW9tGOWY9T6Adz7CtCvPfGPwyfxjrIvbvxBdRW6KFhtViUrFxzjnqeeaTv0GrdTyjx58TtQ8WPJZWm+z0jOPJz883u5Hb/Z6eua4InHXivoqw+B/he2KtdSX16w6iSbYp/BQP511+leDvDmi4On6NZwuOj+UGf/AL6OT+tZcje5qqkVsfMekeDPEeukHTtHu5I2/wCWrp5cf/fTYFehaJ8CL6YrJreqRW69TDarvf6bjwPyNe7YpapU0S6jZyvh/wCHfhnw2Vks9NSS4X/l4uP3kmfYnp+AFdSBS0VdrGd7hRRRTAKKKKAGsuTkcN60BucMMH+dOpCoYYNAC0UzJThuR60+gAooqOWVYULNuI9FUsfyFAElYPjDWLLRPCuoXl8yiPyWRUP/AC0ZgQEHqTVfUtb191ZND8OSSv0E99OsEY99uS5/IVwep/C/xb4vvlu/EviO0QL9yG2iZ0iHoqnaPx5NS32KitdTwoDCgHsKXuB3PQV9Dab8DfDdrta9ub6+YdQ0gjU/goz+tdrpPhHw/oeDpukWlu4/5aLGC/8A30cn9ayVNmrqI+bdB+HfijxCyNa6XJDA3/LxdDykx688n8Aa9s8C/C3T/CUy6hcy/btUAwspXakWeuxfXr8x5+legYppJJ2r+JrRQSM5VGxSSTtXr3PpSgBRgUABRgUtWQFFFFABRRRQAUUVzPibx54f8Kxkaheq1zjK2sPzyt/wHt9TgUm7Ba50vSvLPHvxctdFWbTdBeO61LlXnHzRQH/2ZvboO/pXnfjD4r614mElpak6dpzcGKJv3kg/23/oMD61wNZSqdjaNPuS3NzPeXMtzcyvNPKxeSSRsszHuTUVFPiikmlSKJGkkdgqIgyWJ6AD1rM1LejaRea7rFtpljGXuLh9i8cL6sfYDk19a6Bott4e0Kz0q0H7q2jCAnqx7sfcnJ/GuP8Ahj8P18J6cb+/RTrFyvz9/ITrsB9fU/4V6HW0I2OepK7CiiitCAooooAKCARg9KKKAGcp7r+op4ORkUU0qVOV/EUAOopFYMP5iloAKKKKACiiigAooooAKRmx7k9BSM2OByT0FCrjk8k9TQAKuDknJp1FFABRRRQAUUUUAFFFFABRRRQAUUUUAFFFFABRRRQAUUUUAFFFFABRRRQAUhAIwRkUtFADMlOvK+vpXmnxG+F0XiQSato4SHVgMvH0S5+p7N/td+/qPTqYQVOV6dxSauNO2x8Y3VrPZXMtrdQvDPE22SKRdrKfQiuz8L/FTxF4bCQPN/aNkuB5F0xLKP8AZfqPxyK9v8ZeANI8Z226Zfs+oIuIruNfmX2YfxL7flivnfxR4O1nwjeeTqVv+5Y4iuY+YpPoex9jzWLi47GykpbnvXh34t+Gdd2RT3B026bjyrvCqT7P90/pXdI6yIGRgykZBByDXxZWzonizXvDjA6VqlxboDkxbt0Z/wCANkU1U7idLsfXtM/1n+7/ADrwvRvjveJsj1zSo506GW0bY34q3B/MV6Ho/wAVPCOsbVXVFtJW48u8XyiPxPy/rWikmZuDR2lFRQzxXEYlhlSSNujI24H8RUtUSFFFFABRRRQAUUUUAFFFFABRRRQAUUUUAFFFFABRRRQAUUUUAFFFFABTWTPI4PrTqKAKlzY2d+nlXtpBOP7s0YcfrXN33wx8G35ZpNCt42P8UG6I/wDjpFdcVDDBpu4pw3T1pWTHdnmV38C/DM2TbXWo2zeglVx/48v9awrr4AnGbTxD+E9r/VWr22ilyIfPI+e7j4E+I4wTBqOmy+xLof8A0E1mS/BnxlGfktbOX/cuh/UCvpems2OByT0FT7ND9pI+X5fhR41iPOi7j22XER/9mqA/C/xqOugTn6Sx/wDxVfU6rjk8k96dij2aH7VnyuPhf41P/MAn/GWP/wCKqeP4S+NpP+YLt/3rmIf+zV9Q4oo9mg9qz5oi+DPjKTh7WziH+3dA/wAga1rL4FeIg4eTVNPtT6xGRmH5Ba+gaKfIhe0Zxvg3wXqPhh2a78T3+pIU2i3l/wBUvuNxZs/iK7KiiqSsQ3cKKKKYBRRRQAUUUUAFFFFABRRRQAUUUUAFFFFABRRRQAUzBT7vK+lPooAQEMMilppXnK8H+dCtng8H0oAdRRRQAUUUwkucDp3NAASWOFOB3NOAAGBSgADA6UUAFFGRWJqni7w9ooP9oaxZwMP4GlBf/vkc0rhY26K8t1X45eHrPcunWt5qDjo23ykP4tz/AOO1wesfGvxPqGUsVtdNjPeNfMf/AL6bj9KlzSLUJM+h7m7t7KBp7qeKCFfvSSuFUfia4HXfjL4Y0rdHZSSapOP4bYYjz7uePyzXz1qWrajrE3nalfXF4/rPIXx9AeB+FU6h1OxoqS6ne+Ivi74m10PFbzLplqeNlr98j3kPP5Yrg2ZnZmZizMcsSckn3pKKzbb3LSS2Ciiuh8K+CtZ8X3Xl6dBtt1OJbqUYij/HufYfpQlcbaRi2dnc6hdxWlnBJPcTNtjijXLMfavob4c/DCDwuqapqojn1hl+UDlLYHsvq3q35e+94O8A6R4NtcWyefeuoEt5KPnb2H91fYfjmurraELaswnUvogooorQzCiiigAooooAKKKKACiiigBrLnkcH1oDc4bg/wA6dSEBhg0ALRTMlPvcj1p9ABRRRQAU1mxwOWPahm5wvLfypVXb7k9TQAirjnqT1NOoooAKKKKACiiigAooooAKKKKACiiigAooooAKKKKACiiigAooooAKKKKACiiigAooooAKKKKAEJAPv9KrXlpbahaSWt5ax3FvIMPHKoZWHuDVgffb6Cmc9aAPGPFvwSDGS78Ly7e5sZ2OP+AOf5N+dePahpt7pV69nqFrNa3CdYpV2n6+49xX2VjBHvWdrXh/SfENp9m1Wxhuo+29eV91bqp+lZypp7GkajW58e0V7H4l+Bc8Re48N3gmTr9lumw30V+h/wCBY+teU6po+o6JdG21OxntJuyypt3fQ9D+FZOLRspJjbDVdQ0qTzNOv7m0f1glZP5V2OmfGDxhp21ZbyG+jH8N1CCf++lwa4Oikm0Dinue2ad8fVwF1TQmB7vazg/+OsB/OursPjH4OvcCS9ms2Pa5gYfquR+tfNFFX7Rk+zR9gWHifQtUC/YdYsbgnoI51J/LOa1QQa+KiATkgEir9lrmr6cQbHVL62x/zyuHUflmq9qS6R9j8UV8s2fxS8Z2QAXW5Jl9J4kk/UjNb9p8dPE0IAubPTbkeuxkP6N/Sn7RE+zkfQ9FeKWvx+GALvw8wPdoboH9GUVtW3x18NSAefZ6lAf+uSuP0aq50TySPUaK4a2+Lvgu4HzasYD6TW8i/wDsuK1rbx74Tu8CHxDp2T0DXCr/ADxT5kLlZ0dFUYNX026/499QtJf+ucyt/I1cDAjIII9qdxWHUUZooAKKKKACiiigAooooAKKKKACiikb7p+lACGRFHUfhQJFPRhUEeO9D4B+XvxQBYJIHAyaRVxyeSepp1FABRRRQAUUUUAFFFFABRRRQAUUUUAFFFFABRRRQAUUUUAFFFFABRRRmgAopMj1qrPqdhbf6+9t4v8AflVf5mgC3RWFc+NPDFpzN4g0xfb7UhP6Gsmf4q+CoM512Jz6RRu/8lpXQ7M7OivN7j43eEYSfL+33H/XO2I/9CIrHufj5pqk/ZdDvZf+ukqJ/LdS50PkkewUhIB56/SvCLr4+am5P2TQ7SIdvNnZ/wCQWsl/jL4tvHcpJZWwwMCK3z/6ETS9oh+zkfRm7/ZOKaZUVSWYKB1LcV8sXfxA8X3rgy67eBT18phHj1+6BWJqF7eXiK93d3M7MckzTM/b3NT7QapM+qdQ8X+HdOyLzXLCHHUG4Ut+QOa5y9+Mng2z4ivJ7sjtb27Efm2BXzQAB0AH0paXtGWqSPb9Q+PtuAy6doUzns9zME/RQf51yuo/GvxZeZFsbKxX/pjDvP5sT/KvOqKnnZXJFGxqXivxBq4Iv9Zvp1P8BmKp/wB8jArHxj0FFFTdlWSCiiikMKKKvaVoup65dfZtLsZ7uXuIlyF/3j0X8aaE2ijVvTtLvtXvVs9OtJrq4bpHEm4/U+g9zXrfhn4GSybLjxJebF6/ZLVsn6M/+H5169o+g6XoFmLXS7GG1hHURry3uT1Y/WrVNvczlUS2PKfCPwRSMx3niiUSN1FjA3y/8Dfv9B+Zr2G0s7exto7a0gjggjG1I41Cqo9gKnorVRSMXJvcKKKKoQUUUUAFFFFABRRRQAUUUUAFFFFABRRRQAU0yIo6j8KcehqrHjvQBYEiH+IfjStnHy9arvhT8p68VZHQUAIqhR79zS0UUAFFFFABRRRQAUUUUAFFFFABRRRQAUUUUAFFFFABRRRQAUUUUAFFFFABRRRQAUUUUAFFFFABTSxLbV69/agkk7V/E+lKAFGBQAEc5BxSbDnORn6U6igBADnJOaWkI3DFNDFThvwNAD6qX+m2WqWrW1/aQ3MDdY5kDA/gat0UAeU+IPgfo19vm0W5l06U8iJv3sX5H5h+f4V5dr3wy8VaBueXTmu7df8AlvZ/vRj1I+8Pyr6noqHBMtVGj4pIwxB4I6j0or631vwZ4e8RZOp6XbzSH/lsF2SD/gQwa851r4DW0m6TRNWkhPaG7Xev/fS4I/I1m6bRoqie54dRXX6x8MfFujFmk0qS6hH/AC1sz5o/IfN+lck6PFIY5FZJF6o4ww/Cos0aJpjaKKKQwooooAKOtFFAhNq/3R+VTxXdzAcw3M8X/XOVl/kahopga8HirxDbf6nXtTQe13J/jV+H4h+L4PueIr4/77B/5iuZoouxcqO1i+LPjaL/AJjO/wD66W0Z/wDZauRfGjxjH96eyl/37Uf0Irz6inzMOVdj06P46eKE+/Z6XJ9YnH/s9Wo/j1rg/wBZo+nt/uu6/wCNeT0Uc7FyRPYo/j9ej/WeH7c/7t0w/wDZasp8fx/y08Nt/wABvB/8RXilFPnYckT3Jfj9aH7/AIeuR9LhT/Sp0+PmlH7+i34+jxn+teDUUc7F7OJ7+vx60H+PS9TH0EZ/9mqVPjt4aYHfY6oPpEh/9nr57op+0YezifQq/G7wn/z76qP+2C//ABVP/wCF1+ET1j1MfW3H/wAVXzvRR7Ri9mj6NHxu8JH/AKCA/wC3X/69OHxt8IH+O/H/AG6mvnCij2jD2SPpD/hdfhD/AJ63v/gI1L/wuvwf/wA9r3/wFavm6ij2jD2aPpH/AIXX4P8A+e17/wCAjUn/AAuzwh/z0vv/AAFavm+ij2jD2cT6PPxt8ID+O/P/AG6n/Gmn43+Eh21E/wDbt/8AXr5yoo9ow9nE+ij8cvCY/wCWWpn6W4/+KprfHTwsOlrqp/7YJ/8AF1870Ue0YeyifQb/AB38Nj7un6o3/bOMf+z1C/x60Mfc0jUj9fLH/s1eBUUe0Y/ZxPd3+PumD7mh3x+sqD+tQN8f7Yfc8Ozn63Sj/wBlrw+ilzsPZxPaZPj+3/LPw5/31ef/AGFVX+PuoH/V6DbL/vXLH/2WvIKKOdj5Inq7/HrXj/q9J01f95pG/qKqS/HLxS/3LbS4/pC5/m9eZ0UueQckT0CX4z+MpPu3VnH/ALlqP6k1Tl+LHjabrrWz/ct4x/7LXF0UczHyrsdNL8Q/GE33/EV8P9xgv8hVCfxX4iuf9dr2qP7G7f8AxrIopXYKKLEt9eT/AOuvLmT/AH5mb+ZqsVB6gH6ilooGAGOnFFFFIAoopKBi05JGjJKnrTaKBEnnOTnC5+lI8ryABj0plFABRSfWloGFFFOjjeaRYokaSRuiINxP4CgQ2iuw0f4X+LtZKsmltaRH/lreN5QH/AfvfpXoei/Aa0i2ya3qss7d4bVfLX/vo5J/SqUGyXOKPDQCWCgZLdAOprsNB+GHirXtjx6ebO3b/ltefuxj2X7x/KvojRfB3h/w8B/ZelW8Eg/5a7d0h/4Gcn9a3K0VPuZur2PLPD/wQ0Sw2TazcS6nMOfLH7uIfgOT+J/CvSrLT7PTbZbaxtYbaBfuxxIFUfgKtUlaJJGbbe4tFFFMQUUUUAFFFFABRRRQAUUUUAFFFFABRRRQAUUUUAFBOBk0EgDJ6UwAucnp2FACqS2TjA7U0QqDxn86kooAjMKk85P41JRTSpB3L+I9aAHUUisG+vcUtABRRRQAUUUUAFFFFABRRRQAUUUUAFFFFABRRRQAUUUUAFFFFABRRRQAUUUUAFFFFABTCSxwv4mgkucL07mngADA6UAIAFGBS0UUAFFFFABQRkYNFFADOU6cr+opwIIyDxS00qQcr17j1oAdRSKwb2PcUtABRRRQAVm6poGka1GU1PTbW7GMZmiDEfQ9RWlRSsFzzTVvgj4Zvtz2L3enSHoIpN6D/gLZ/nXEap8Ctdtizabf2d6g6LIDC5/mP1r6CoqXBMpTkj5J1PwN4o0csb3Q7xUXrJHH5qf99LmufPysVPDDqD1r7V4rO1DQNI1dSNR0y0us95oVY/mRU+zLVXufHdFfS2o/BvwffEmK0nsmPe2nYD8myP0rlNQ+AQwW03XiPRLmDP8A48p/pUumy/aI8Uor0K/+C/i+zJ8iGzvVHeG42n8mArmb7wb4m00E3eg6hGo6sIC6/muRU8rK5kzDopXUxNskBRvRxtP60lIYUUUUhhRRRQAUUUUAFFFFABRRRQAUUUUAFFFFABRRSdKAFooooAKKKKACiiigAooooAKKKKACiiigAooooAKKKKACiiigAooooAKKKTn8PWgQUtLGjStsiUyN2CDcf0rcsfBfibUsG00HUHU9HaEov5tgU7MLowqK9DsPgt4uuyPPjs7JT/z2n3H8lBrqdP8AgEvytqWvMfVLaAL/AOPMT/KqUGTzxR4nQoLMEXJY9FHJ/KvpfTvg74PsSDLZTXrDvczMR+QwP0rrtP0LSdJULp2mWlr2zDCqn8wKr2bIdVHy5pngTxTrG02eh3hRukkqeUn5tiuy0v4Fa5cbX1LULSzQ9UiBmcfyH619A4FLVKmiXUZ5ppHwU8L2QV7w3WouOvnSbE/75XH867rTNC0nRY/L03Tra0XGP3MQUn6nqavlcHK8H09aAwbjoe4q0kiHJvcdRRRTEFFFFABRRRQAUUUUAFFFFABRRRQAUUUUAFFFFABRRRQAUUUUAFISAMmgkKMmkALHc34D0oAQAscsMDsKfRRQAUUUUAFFFFADWXPPQ+tAbnDcH+dOpCAwwaAFopmSnXlfX0p9ABRRRQAUUUUAFFFFABRRRQAUUUUAFFFFABRRRQAUUUUAFFFFABRRRQAUwkucD7vc+tHLnHRf508DAwKAAAAYFFFFABRRRQAUUUUAFFFFABRRRQAjLn2PrSBiDhuD6+tOpCARgjigBaKZkp15X19Kf1oAKKKKACiiigAooooAKKKKACjFFFAFW606yvl23lnBcL6SxK/8xXPXnw28H3xJm0CzVj1MKmI/+OkV1VLSsgu0eaXfwP8AClwSYH1C1Pby59wH/fQNYV18AYjk2fiCVfQT2wb9VYV7RRS5EVzyPnu6+BPiKIE22o6bOPRi8Z/9BNY1z8IfGtuCV0yKcDvDcof5kV9O01mxwOSegqfZopVJHyXc+BfFdqcS+HtR+qQ7x/47msqfStRtDi50+8hPfzLd1/mK+yVXHJ5J70uBS9mh+1Z8VEhThiAffigEHoc19mT6dZXP+vtIJf8ArpGG/mKzbjwd4auv9doGmN7/AGVP8KTpDVU+Rse1JX1RL8MfBc33/D9oP9zcn8jVGb4PeCpfu6ZLF/1zupB/7NS9mx+1R8y0V9GyfBDwk/3TqMf+7c5/mDVOX4D+Hm/1Wo6on1eNv/ZaPZsftUfP1Fe7SfALTT/q9dvV/wB6KM/4VA3wAg/g8RzD/etFP/s1LkYe0ieIUV7Q/wAAH/g8Rqf96z/+zqFvgDefw+IID9bVv/iqORj54njn0pa9ePwC1Ptr1p+Nu3/xVMPwD1bPGuWX/fh/8aOSQe0ieSUV6yPgNq+cHWrEH/ri/wDjTv8AhQmrf9Byy/78P/jS5JBzxPJKK9eHwC1Lvr1p+Fu3/wAVUi/AG8P3vEEA+lqf/iqfJIPaRPHaK9oT4AP/AB+Ix+Fn/wDZ1OvwAg/j8RzH/dtFH/s1HIw9pE8Qor3eP4B6aP8AWa5fN/uxRj+hq3F8B/Dq/wCs1HVH+jxj/wBlo5GL2kT59or6Nj+CHhFPvHUZP965x/ICrsPwf8FRfe0ySX/rpdSH/wBmp+zYvaI+Zse1ISB1IH1r6pi+GXgyE/J4ftD/AL4Z/wCZrSg8H+GrUfudA0xMdxapn+VNU2L2qPkQEMcKcn25q5b6TqV2cW2nXk3/AFzt3b+Qr7Bg0+zth+4tIIv9yML/ACqxin7LzF7XyPku38B+LLrHleHdR57vDsH/AI9iti2+EHjS4wW02KAHvNcoP5E19O4pCQByQKfs0L2rPn21+BHiGXBudR06Aeil5D/IVuWnwBgGDeeIJWPcQ2wX9WJr2emHLnA4XufWnyIXtJHm1p8EvCsLDzWv7rHUyXG0H/vkCuisvhv4PsCDD4fs2I7yqZT/AOPE11QwBgUU+VE8zK1rp9nYrttLSC3X0ijVB+lWMUtFUIKKKKACiiigAooooAKRlDex7GlooAaGIOG69j606kIBGCOKbynXlf5UAPooByMiigAooooAKKKKACiiigAooooAKKKKACiiigAooooAKQkKMmhmCjmkCnO5uvYelAAASdzdew9KdRRQAUUUUAFFFFABRRRQAUUUUAFM2leV6elPooAQMGGRS00rk5Bw1Ctk4Iw3pQA6iiigBobBw3B9fWnUhAIwRxTclOvK+vpQA+ijrRQAUUUUAFFFFABRRRQAUUUjNtxwTn0oAWgkDqcUwyLg4IJpMfMQACe5NACdQW2hjnGD2FOUlQFIx2BpjDA3KCD0IFOA4CjJ5ySaAJKKKKACiiigAooooAKKKKACiiigAooooAKKKKACmbSvK9O4p9FACBgw4paay5OQcH1oDZOCMGgB1FFFABRRRQAUUUUAFFFFABRRRQAUUU1m52ryf5UADNg4HLUqrj3J6mhV2j1Pc0tABRRRQAUUUUAFFFFABRRRQAUUUUAFFFFABRRRQAhUMMGm5KcNyPWn0UAFFMwU+7yvpTgQwyKAFooooAKKKKACiiigAooooAKKRmxjgknsKaZBtOOvagBxZV6kD6mmDJBKgFs9/SlAIJC4yOpPemMMjIGDnBxQA9SVCqw9sg0+owOAADjOSTUlABRRRQAUUUUAFFFFABRRRQAUUUUAFFFFABRRRQAwqVOV/EU5WDdPypaay55HB9aAHUU0NzhuD/OnUAFFFFABRRRQAUUUUAFFFFABRRRQAUjMFHv2FDNt9yegpFXnJ5b+VAAqnO5uv8qdRRQAUUUUAFFFFABRRRQAUUUUAFFFFABRRRQAUhUMOaWigBm4rw3T1p9HWmYKdOV9PSgB9FFFADCpXlenpTgwYcUtNZcnI4PrQA6imhsnBGGp1ABRRRQAUUhIBAJ5NLQAVG7qCDkcHmnPyQvr1poLbcjAHYYoARsMAR93+Ro3DJ+ba3cUAYfKjgjOKcq/MDgKB2FACKM4xnA5JPc1JRRQAUUUUAFFFFABRRRQAUUUUAFFFFABRRRQAUUUUAFFFFABSFQwwaWigBmSnDdPWn0UzBT7vK+lAD6KQEMMiloAKKKKACiiigAooppYk7V69z6UADMc7V6/ypVUKP60KoUYFLQAUUUUAFFFFABRRRQAUUUUAFFFFABRRRQAUUUUAFFFFABRRRQAU0rzuXg/zp1FADVbPB4PpTqRlDfX1pAxU4b8D60AOooooAKKKQsAcE80ALRRTW5IXsetADWdcgg9D2pGIYA5+Xv7e9OyxXcCAOwxTQMPlccjODQAbhn7xDd8c5pyjOMA7Rzz3NAU5BIAx0Ap9ABRRRQAUUUUAFFFFABRRRQAUUUUAFFFFABRRRQAUUUUAFFFFACEBhg03JT73I9afRQAUUzBTleR6U4EMMigBaKKKACiiigAooooAKazY4HJPQUM2OByT2oVccnknqaABVxyeWPenUUUAFFFFABRRRQAUUUUAFFFFABRRRQAUUUUAFFFFABRRRQAUUUUAFFFFABRRRQAhUMMGm5K8N09afRQAUUUjHA9+1ADWABOR8rdfakII+/lucAUHHIZmJ746CgDgKWyD91qAEwTjYeR/CaMqSR8w9VxTuH4PDClC4OScmgAUHJYjHYD0p1FFABRRRQAUUUUAFFFFABRRRQAUUUUAFFFFABRRRQAUUUUAFFFFABRRRQAUUUUANK85Xg/zoVs8Hg+lOpGUN9exoAWikGccnJpaACiimEljhfxNACkknav4n0pQAowKAAowKWgAooooAKKKKACiiigAooooAKKKKACiiigAooooAKKKKACiiigAooooAKKKKACggEYNFFADOU9Sv6in0UUAFMYBSSfut19qcxwOOvQUw45BLMe+KAArj73zdgKTGfunBHO00vGApPB+6fSlA3cN94UAN4JIKtk9Vp6g5JPU9vSgLg5JJPvTqACiiigAooooAKKKKACiiigAooooAKKKKACiiigAooooAKKKKACiiigAooooAKaV5yvB/nTqKAGq2Tg8H0p1Iyhuv50DIHJyaAFooooAKazYOBy1DNztXr/ACpVXaPfuaABV2+5PU0tFFABRRRQAUUUUAFFFFABRRRQAUUUUAFFFFABRRRQAUUUUAFFFFABRRRQAUUUUAFFFFABTS2DgDJp1MfDcBckfpQAn32yCRxkUhJDcnIU5PFIFBUFc5HBGeacDuI5G79CKAFGVJwuQTnINJtBwp7cmkXjKk/L2I7U6P7uMDg9u9ADlXb3JJ7mloooAKKKKACiiigAooooAKKKKACiiigAooooAKKKKACiiigAooooAKKKKACiiigAooooAKKKTIzjPNADeq5JPPakBB6DB9jS/wAIBzke1IowcnP5GgBy5wQe1OAAGB0pq9z6mnUAFFFFABRRRQAUUUUAFFFFABRRRQAUUUUAFFFFABRRRQAUUUUAFFFFABRRRQAUUUUAFFFFADWYggAZPXk0377A9DjI9qV/myoXJHr2pgUMuVHI6jNACnIbuQvJpw3DOACDyOaQHOPmw3Y+opBxlScoe/pQAoUEheuOTTwoH19aRPu9sD0706gAooooAKKKKACiiigAooooAKKKKACiiigAooooAKKKKACiiigAooooAKKKKACiiigAooooAKZ1XJJ+lOyM4zyab/Dg5yPagBAQegwe2KcpPIPamqADk5/I05epPrQAoAHTvS0UUAFFFFABRRRQAUUUUAFFFFABRRRQAUUUUAFFFFABRRRQAUUUUAFFFFABRRRQAUUUUAFFBIAyelRs/wAhwG6dcUAO3E/dXPvTCR8ytlcnPFLhd2D93HFIRuQjPG7AP+fxoAQYA3oSccEHvTlAYn5flPYjvTtpP3iMDsBTqAEwMYwMelAIzjuO1LSMob69jQAtFNDEHDfgfWnUAFFFFABRRRQAUUUUAFFFFABRRRQAUUUUAFFFFABRRRQAUUUUAFFFFABRRRQAUUU0kk7V/E+lAAWJO1evc+lKqhRgUABRgUtABRRRQAjErzjI70oIIyOlFNKkHK/iPWgB1FIrBvr3FLQAUUUUAFFFFABRRRQAUUUUAFFFFABRRRQAUUUUAFFFFABRRRQAUUUUAFFFBIAyeBQAU3cT90ZHqTSM/wAhwG6cHFIdu4BsbccZ6UAIT1DgjJzxzSDAG5M8ccnrSkAoR23cf5/On7ScbjkDtigBFGWJxhT2PrT6KKAE3DdtPHp70tIQCMEU3JTryvr6UAPoo60UAFFFFABRRRQAUUUUAFFFFABRRRQAUUUUAFFFFABRRRQAUUUUAFFFFABRRRQAU1mxwOSegoZscDlqFXHuT1NAAq45PJPU06iigApGJHOMjvS0UAICCMg8UtNKkHK9e49aVWDex7igBaKKKACiiigAooooAKKKKACiiigAooooAKKKKACiiigAooooAKKKKACiiigApCQBknFMGB8yjpwy0hb5d+M8/LQApYM3qFGaDuC793vjtSMSJCw5PAx60p2hQyjI7c8CgBTksQACBjrShTkFj06AdqVRjOTknrS0AFFFFABRRRQAEAjBpnKepX9RT6KAAEEZHSimlSDlfxHrSqwb69xQAtFFFABRRRQAUUUUAFFFFABRRRQAUUUUAFFFFABRRRQAUUUUAFFFMJLnC9O5oACSx2r+JpwAUYFAAAwOlLQAUUUUAFFFFABRRRQA1lzz0PrQG5w3B/nTqQgEYIoAWimZKdeV9fSn0AFFFFABRRRQAUUUUAFFFFABRRRQAUUUUAFFFFABRRRQAUUhBIIBwaYOBlRgjqtADyQBknFMLBmHcAZpC3yl+vOBQxIfI5IAGPWgBedm/cc4zjtSncXIGMYHUUh27Q6jI+vSnqMDk5J6mgBApzljk9vanUUUAFFFFABRRRQAzaV5Xp6U5WDDIpaaVycg4agB1FNDZOCMNTqACiiigAooooAKKKKACiiigAooooAKKKKACiiigAooooAKKKKACms3O1eW/lQzHO1ev8qVVCj+ZoAFXaPU9zS0UUAFFFFABRRRQAUjKG9j2NLRQA0MQcNwex9adSEAjBHFNyU68r6+lAD6KOvSigAooooAKKKKACiiigAooooAKKKKACiiigAooooAKKKKACiikZgo9+woAaOCcAse5JpDsKDIOCe1KM8lCMHnntSLyQAche/qaADqSUBJPc9qXYRwp4Iwc0+igBAMAD0paKKACiiigAooooAKKKKACmsueehHenUUANDc4bg/zp1IQGGDTclOvK+vpQA+iiigAooooAKKKKACiiigAooooAKKKKACiiigAoopnL8DhfX1oACS5wPu9zTwABgdKAMDAooAKKKKACiiigAooooAKKKKACiiigApm0ryvT0p9FACBgwyKWmlcnIOGoVsnBGDQA6iiigAooooAKKKKACiiigAooooAKKKKACiiigBGOBx1PApo4J2jJHUk0rDIyOo5poPUqw57HtQAEqU5U4J6e9HUkqDuPcjpQuCQByBzn1NSUAM2Y+6cetOAwAB2paKACiiigAooooAKKKKACiiigBGUMMGm7ivDdPWn0daACimYKdOV9PSnAgjINAC0UUUAFFFFABRRRQAUUUUAFFFFABRRRQAUUUUAFNLEnavXufSgkk7V/E+lKAFGBQAKoUYFLRRQAUUUUAFFFFABRRRQAUUUUAFFFFADCpXlfxFOVgw4paay5ORw3rQA6imhucNwf506gAooooAKKKKACiiigAooooAKKKKACiiigAoprE5wDjjJNNRwSRuz6Z4oAezBfcnoKRV5yeW/lTsDOe9FACFVJyVB/CloooAKKKKACiiigAooooAKKKKACiiigAooooAKKKKAGbSvK9PSnBgwyKWmlcnIOGoAdRTVbJwRhvSnUAFFFFABRRRQAUUUUAFFFFABRRTP9Z/u/zoAP8AWf7v86fRRQAUUUUAFFFFABRRRQAUUUUAFFFFABRRRQAUUUUAFIyhhg0tFADNxXhunrT6OtMwU6cr6elAD6KQEEZBpaACiiigAooooAKKKKACiiigApGbaPfsKGbb7k9BSKuDk8tQAq5xz1oKg9QDS0UAFFFFABRRRQAUUUUAFFFFABRRRQAUUUUAFFFFABTSvO5eD/OnUUAIrZ46H0paRlDfXsaQMQcN+B9aAHUUUUAFFFFABRRRQAUUUUAFFFFABTCSx2r+JoJLnC9O5pwAAwOlAAAFGBS0UUAFFFFABRRRQAUUUUAFFFFABRRRQAUUUUAFFFFACFQwwabkpw3I9afRQAUUzBT7vI9KcCGGRQAtFFFABRRRQAUUUUAFFFNfOw49KAHUwsTnnCjjPc01gAm4ZHsD0pRnjuVPSgBDkZZSTgcgilBJB3ABKCTyxGOMAetKsagDjpQA5c7BnriloooAKKKKACiiigAooooAKKKKACiiigAooooAKKKKACiiigAooooAQqGHNN3FeG6etPo60AFFMwU6cr6elOBBGQeKAFooooAKKKKACgnAyaCQBk9KYAXOT07CgAxv5P3ew9afRRQAUUUUAFFFFABRRRQAUUUUAFFFFABRRRQAUUUUAFFFFABRRRQAUUUUANK85Xg/zpVbPHQ9xS0jKG+vY0ALRTQxBw34H1p1ABRRRQAUUUUAFNZscDknoKGbHA5Y9qFXHJ5J6mgAVccnknvTqKKACiiigAooooAKKKKACiiigAooooAKKKKACiiigAooooAKKKKACggEYPSiigBnKepX9RTwQRkUU0qVOV/EetADqKRWDfX0paACiiigAooooAKZkucD7vc+tHL9OF9fWngYGBQAAADAooooAKKKKACiiigAooooAKKKKACiiigAooooAKKKKACiiigAooooAKaV53Lwf506igBqtng8H0p1Iyhh/I0gYqcN+BoAdRRRQAUUxyeOcL3Ioyw+Xqex9qAHE4BJ6CmHk87snsO1DbihHDA9xQpJO5cHPBGelADfuHcuSp4INBAP3WyewFOxzt7k5OO1SUAIFAOep9SaWiigAooooAKKKKACiiigAooooAKKKKACiiigAooooAKKKKACiiigAooooAKKKKACmlTnK8H+dOooARWz2wR1FLTWdUxnvTPO/wBk49aAJaQkAZNIrhumaNpLZbt0FACAFjlhgdhT6KKACiiigAooooAKKKKACiiigAooooAKKKKACiiigAooooAKKKKACiiigAooooAKKKKAAgEYPSmcp7r/ACp9ITgZoAWimkn2H1pNxHofoaAH01m5wOW/lSkkrle/rQq7R79zQAKoX3J6mloooAKKKKACiiigAooooAKKKKACiiigAooooAKKKKACiiigAooooAKKKKACiiigAooooAay55HB9aAxzhhg/wA6dTWcJ1oAdRUXneiHHrT1cN0zQA6mf6z/AHf50pUsefu+nrTqACiiigAooooAKKKKACiiigAooooAKKKKACiiigAooooAKKKKACiiigAooooAKKKKACggEYNFBOBk0AIq7eM5HalppbgbSDk4ppdgvKkdvxoAduJyFGfc9KaMgbW4B6GjA+UH7uPzpDja4H3ccfWgBQO33WHp3oKFiMqAe7ClCtkZxx39afQAgAAwBiloooAKKKKACiiigAooooAKKKKACiiigAooooAKKKKACiiigAooooAKKKKACiiigAooooAKKKbkscL0HU0ART9Voyu08c561MQD1ANGxf7o/KgCGA5ZqnpAAvQAUtABRRRQAUUUUAFFFFABRRRQAUUUUAFFFFABRRRQAUUUUAFFFFABRRRQAUUUUAFFFFABRRRQAU1/u0rMFHv2FABx83OaAGuDnNCDuaXYPf8AM0bB7/maAFT7i/SloooAKKKKACiiigAooooAKKKKACiiigAooooAKKKKACiiigAooooAKKKKACiiigAooooAKKKKACobjotSFixwvbqaUgHqAaAIQV2njnsaITmRvTHFTbF/uj8qAFXoAKAFooooAKKKKACiiigAooooAKKKKACiiigAooooAKKKKACiiigAooooAKKKKACiiigAooooAKRhlcZxSkgDJOKYSrOoyCP60AMwzbiCDzTs78dNw5HoaTEm7dgZ9AaDg4YHgn8jQAoYA4IO09MjvSjl8N25AFLsz945oC4Ock+maAHUUUUAFFFFABRRRQAUUUUAFFFFABRRRQAUUUUAFFFFABRRRQAUUUUAFFFFABRRRQAUUUUAFFFMzv4H3e59aAAkucDp3NPAAGB0oAwMCigAooooAQgEYIpuSnXlfX0p9FABRTNpXlenpTgwYZFAC0UUUAFFFFABRRRQAUUUUAFFFFABRRRQAUUUUAFFFFABRRRQAUUUUAFFFFABSM2PcnoKRmxwOSegoVccnlj3oAFXByeWp1FFABRRRQA0rk5HDUK2TgjBp1Iyhhg0ALRTNxXhunrT6ACiiigAooooAKKKKACiiigAooooAKKKKACiiigAooooAKKKKACiiigAooooAKYSXOF6dzRkucD7vc+tPAAGBQAAADA6UUUUAFIQCMEZFLRQAzJTryvr6U/rRTNpU5Xp3FAD6KRWDDiloAKKKKACiiigAooooAKKKKACiiigAooooAKKKKACiiigAooooAKKKKACikY4XPftTMZOCN5HWgAJyc4yc4Ge1DDcdrYyehAo+UIOuCfxBoHJ4yT0yRwKAGpx82CT2qRUC8459aUDAAHaloAKRgSODg0tFADVbJweD6U6kZQw5pNxXhvwNADqKKKACiiigAooooA//9k=;" parent="oquPnyjEzPXF4-H-xuAM-6" vertex="1">
          <mxGeometry x="10" y="120" width="70" height="70" as="geometry" />
        </mxCell>
        <mxCell id="oquPnyjEzPXF4-H-xuAM-3" value="&lt;h2&gt;&lt;font style=&quot;font-size: 36px&quot; face=&quot;Georgia&quot; color=&quot;#402b21&quot;&gt;Dr. Café&lt;/font&gt;&lt;/h2&gt;" style="text;html=1;resizable=0;autosize=1;align=center;verticalAlign=middle;points=[];fillColor=none;strokeColor=none;rounded=0;" parent="oquPnyjEzPXF4-H-xuAM-6" vertex="1">
          <mxGeometry x="80" y="125" width="170" height="60" as="geometry" />
        </mxCell>
        <mxCell id="oquPnyjEzPXF4-H-xuAM-4" value="&lt;font style=&quot;font-size: 18px&quot; color=&quot;#402b21&quot;&gt;Sobre nós&amp;nbsp; &amp;nbsp; &amp;nbsp;Mais pedidos&amp;nbsp; &amp;nbsp; Promoções&amp;nbsp; &amp;nbsp; &amp;nbsp;Contatos&lt;/font&gt;" style="text;html=1;resizable=0;autosize=1;align=center;verticalAlign=middle;points=[];fillColor=none;strokeColor=none;rounded=0;" parent="oquPnyjEzPXF4-H-xuAM-6" vertex="1">
          <mxGeometry x="350" y="150" width="440" height="20" as="geometry" />
        </mxCell>
        <mxCell id="oquPnyjEzPXF4-H-xuAM-23" value="First slide" style="html=1;shadow=0;dashed=0;strokeColor=#6D1F00;strokeWidth=1;fontColor=#ffffff;whiteSpace=wrap;align=center;verticalAlign=middle;fontStyle=0;fontSize=40;fillColor=#52372A;" parent="oquPnyjEzPXF4-H-xuAM-6" vertex="1">
          <mxGeometry y="185" width="827" height="375" as="geometry" />
        </mxCell>
        <mxCell id="oquPnyjEzPXF4-H-xuAM-24" value="" style="html=1;verticalLabelPosition=bottom;labelBackgroundColor=#ffffff;verticalAlign=top;shadow=0;dashed=0;strokeWidth=4;shape=mxgraph.ios7.misc.more;strokeColor=#a0a0a0;" parent="oquPnyjEzPXF4-H-xuAM-23" vertex="1">
          <mxGeometry x="1" y="0.5" width="7" height="14" relative="1" as="geometry">
            <mxPoint x="-50" y="-7" as="offset" />
          </mxGeometry>
        </mxCell>
        <mxCell id="oquPnyjEzPXF4-H-xuAM-25" value="" style="flipH=1;html=1;verticalLabelPosition=bottom;labelBackgroundColor=#ffffff;verticalAlign=top;shadow=0;dashed=0;strokeWidth=4;shape=mxgraph.ios7.misc.more;strokeColor=#a0a0a0;" parent="oquPnyjEzPXF4-H-xuAM-23" vertex="1">
          <mxGeometry y="0.5" width="7" height="14" relative="1" as="geometry">
            <mxPoint x="43" y="-7" as="offset" />
          </mxGeometry>
        </mxCell>
        <mxCell id="oquPnyjEzPXF4-H-xuAM-26" value="" style="html=1;shadow=0;strokeColor=none;fillColor=#ffffff;" parent="oquPnyjEzPXF4-H-xuAM-23" vertex="1">
          <mxGeometry x="0.5" y="1" width="30" height="4" relative="1" as="geometry">
            <mxPoint x="-50" y="-20" as="offset" />
          </mxGeometry>
        </mxCell>
        <mxCell id="oquPnyjEzPXF4-H-xuAM-27" value="" style="html=1;shadow=0;strokeColor=none;fillColor=#BBBBBB;" parent="oquPnyjEzPXF4-H-xuAM-23" vertex="1">
          <mxGeometry x="0.5" y="1" width="30" height="4" relative="1" as="geometry">
            <mxPoint x="-15" y="-20" as="offset" />
          </mxGeometry>
        </mxCell>
        <mxCell id="oquPnyjEzPXF4-H-xuAM-28" value="" style="html=1;shadow=0;strokeColor=none;fillColor=#BBBBBB;" parent="oquPnyjEzPXF4-H-xuAM-23" vertex="1">
          <mxGeometry x="0.5" y="1" width="30" height="4" relative="1" as="geometry">
            <mxPoint x="20" y="-20" as="offset" />
          </mxGeometry>
        </mxCell>
        <mxCell id="oquPnyjEzPXF4-H-xuAM-31" value="" style="verticalLabelPosition=bottom;verticalAlign=top;html=1;shape=mxgraph.basic.rect;fillColor2=none;strokeWidth=1;size=20;indent=5;fillColor=#52372A;" parent="oquPnyjEzPXF4-H-xuAM-6" vertex="1">
          <mxGeometry y="999" width="826" height="461" as="geometry" />
        </mxCell>
        <mxCell id="_z7VufSlRjq4akLYijZS-1" value="&lt;font style=&quot;font-size: 46px&quot; color=&quot;#52372a&quot;&gt;Mais pedidos&lt;/font&gt;" style="text;html=1;resizable=0;autosize=1;align=center;verticalAlign=middle;points=[];fillColor=none;strokeColor=none;rounded=0;" vertex="1" parent="oquPnyjEzPXF4-H-xuAM-6">
          <mxGeometry x="269" y="599" width="290" height="30" as="geometry" />
        </mxCell>
        <mxCell id="_z7VufSlRjq4akLYijZS-16" value="&lt;font style=&quot;font-size: 46px&quot; color=&quot;#52372a&quot;&gt;Mais pedidos&lt;/font&gt;" style="text;html=1;resizable=0;autosize=1;align=center;verticalAlign=middle;points=[];fillColor=none;strokeColor=none;rounded=0;" vertex="1" parent="oquPnyjEzPXF4-H-xuAM-6">
          <mxGeometry x="268" y="1519" width="290" height="30" as="geometry" />
        </mxCell>
        <mxCell id="oquPnyjEzPXF4-H-xuAM-43" value="&lt;font style=&quot;font-size: 46px&quot; color=&quot;#dfc48f&quot;&gt;Mais pedidos&lt;/font&gt;" style="text;html=1;resizable=0;autosize=1;align=center;verticalAlign=middle;points=[];fillColor=none;strokeColor=none;rounded=0;" parent="1" vertex="1">
          <mxGeometry x="268" y="1040" width="290" height="30" as="geometry" />
        </mxCell>
      </root>
    </mxGraphModel>
  </diagram>
</mxfile>
